<?xml version="1.0" standalone="no"?>

<!DOCTYPE svg PUBLIC "-//W3C//DTD SVG 20010904//EN"

 "http://www.w3.org/TR/2001/REC-SVG-20010904/DTD/svg10.dtd">

<svg version="1.0" xmlns="http://www.w3.org/2000/svg"

 width="720.000000pt" height="700.000000pt" viewBox="0 0 720.000000 700.000000"

 preserveAspectRatio="xMidYMid meet">

<path fill="#020202" stroke="none" d="
M338 694

C310 692 293 689 272 683

C176 657 96 591 52 502

C28 452 17 404 17 349

C17 308 22 273 36 235

C90 78 248 -18 412 6

C597 33 727 202 706 388

C695 491 638 583 551 639

C507 668 460 685 406 693

C394 694 347 695 338 694

Z

"/>

<path fill="#2a2628" stroke="none" d="
M338 694

C310 692 293 689 272 683

C176 657 96 591 52 502

C28 452 17 404 17 349

C17 308 22 273 36 235

C90 78 248 -18 412 6

C597 33 727 202 706 388

C695 491 638 583 551 639

C507 668 460 685 406 693

C394 694 347 695 338 694

Z

M321 381

C322 380 325 376 328 370

C333 361 333 361 333 347

C333 331 332 325 326 312

C321 302 317 298 313 301

L312 302

L314 305

C318 309 320 313 320 318

C320 328 315 336 309 338

C303 340 301 339 298 336

L295 333

L295 334

C293 339 292 348 292 354

C292 372 301 385 313 384

C316 383 319 382 321 381

Z

M478 368

C482 366 486 360 488 353

C489 349 489 344 489 334

C489 319 488 311 482 301

C479 296 478 295 473 293

C470 292 467 292 467 292

L466 293

L468 295

C471 299 472 302 472 308

C472 323 462 334 453 330

L451 329

L450 330

C449 331 449 336 449 341

C450 355 452 360 461 366

C468 370 473 371 478 368

Z

"/>

<path fill="#3d3b53" stroke="none" d="
M338 694

C310 692 293 689 272 683

C176 657 96 591 52 502

C28 452 17 404 17 349

C17 308 22 273 36 235

C90 78 248 -18 412 6

C597 33 727 202 706 388

C695 491 638 583 551 639

C507 668 460 685 406 693

C394 694 347 695 338 694

Z

M321 381

C323 380 326 375 329 369

C334 360 334 360 333 346

C333 334 333 330 331 324

C326 307 317 296 312 301

L311 302

L314 306

C319 311 320 316 319 324

C318 329 317 331 314 334

C311 338 310 338 305 338

C300 338 296 336 296 333

L296 332

L295 332

L294 332

L293 339

C289 366 296 384 313 384

C317 384 318 383 321 381

Z

M478 369

C483 365 488 357 489 349

C490 345 490 338 490 330

C489 316 487 310 482 300

C479 295 478 294 473 293

C468 291 467 291 466 292

L465 293

L466 294

C469 295 471 301 471 307

C471 315 470 321 465 326

C462 330 461 330 457 330

C455 330 452 329 451 329

L450 329

L450 340

C450 356 451 360 461 366

C469 372 473 372 478 369

Z

"/>

<path fill="#983217" stroke="none" d="
M338 694

C310 692 293 689 272 683

C176 657 96 591 52 502

C28 452 17 404 17 349

C17 308 22 273 36 235

C90 78 248 -18 412 6

C597 33 727 202 706 388

C695 491 638 583 551 639

C507 668 460 685 406 693

C394 694 347 695 338 694

Z

M482 557

C485 555 489 552 493 549

C499 545 505 541 529 524

C541 515 552 504 558 495

C561 491 564 484 564 477

C565 475 565 471 566 470

C567 468 568 463 569 460

C569 456 570 452 571 451

L571 449

L566 449

C555 449 536 443 531 439

C528 436 528 436 530 427

C533 417 534 415 542 403

C548 393 551 391 558 387

C562 385 565 385 572 385

L581 385

L581 382

C582 380 583 374 584 370

C587 350 587 334 584 325

L584 324

L575 327

C566 330 556 334 545 341

C535 348 506 367 498 373

C489 380 487 381 482 381

C479 382 477 383 476 385

C475 387 474 388 473 388

C473 388 464 384 455 380

C421 363 397 354 371 347

C363 346 357 344 357 344

L356 344

L355 349

C352 357 344 387 343 394

C342 402 340 424 340 436

C340 445 340 445 344 448

C348 452 351 459 353 466

C354 468 355 473 356 476

C358 484 357 487 354 491

L352 494

L355 498

C359 504 386 524 395 529

C411 536 448 551 459 555

C465 557 471 559 472 559

C476 562 478 561 482 557

Z

M321 381

C323 380 326 375 329 369

C334 360 334 360 333 346

C333 334 333 330 331 324

C326 306 317 296 312 301

L311 303

L314 306

C319 311 320 318 318 326

C315 338 301 342 297 333

L295 330

L295 332

C292 341 291 359 293 368

C296 378 303 384 313 384

C317 384 318 383 321 381

Z

M478 369

C483 365 488 357 489 349

C490 345 490 338 490 330

C489 316 487 310 482 300

C479 295 478 294 473 293

C468 291 467 291 466 292

L465 293

L467 295

C470 299 471 302 471 308

C471 323 460 334 452 328

L450 327

L449 329

C449 331 449 336 449 342

C450 355 452 361 461 367

C469 372 473 372 478 369

Z

"/>

<path fill="#fc3b00" stroke="none" d="
M338 694

C310 692 293 689 272 683

C176 657 96 591 52 502

C28 452 17 404 17 349

C17 308 22 273 36 235

C90 78 248 -18 412 6

C597 33 727 202 706 388

C695 491 638 583 551 639

C507 668 460 685 406 693

C394 694 347 695 338 694

Z

M482 557

C485 555 489 552 493 549

C499 545 505 541 529 524

C537 518 544 512 549 507

C560 495 562 490 565 477

C566 469 568 459 570 453

C570 451 571 449 570 449

C570 448 568 448 566 448

C556 448 538 443 532 438

C529 436 529 436 532 424

C534 417 536 414 543 404

C552 389 557 386 573 386

L582 386

L582 383

C583 381 584 374 585 368

C588 347 589 334 585 324

L585 323

L584 324

C583 324 579 326 575 327

C567 329 556 335 545 341

C535 348 506 367 498 373

C489 380 487 381 482 381

C479 382 477 383 476 385

C475 387 474 388 473 388

C473 388 464 384 455 380

C420 363 395 353 367 346

C361 345 356 344 355 345

C355 345 353 351 351 358

C341 394 340 402 340 428

C340 445 340 445 343 449

C348 454 350 459 353 471

C356 484 357 487 354 490

C353 491 352 493 352 494

C352 499 382 523 399 531

C420 540 452 553 461 555

C466 557 471 559 472 559

C476 562 478 561 482 557

Z

M324 380

C329 374 334 361 335 352

C336 332 330 312 321 302

C317 298 310 298 310 303

L310 304

L311 304

C312 304 314 306 315 308

C323 318 318 336 307 338

C302 339 299 337 297 333

L295 329

L294 329

C294 330 293 333 292 338

C291 348 291 362 293 369

C297 384 315 390 324 380

Z

M478 370

C487 365 491 353 491 334

C491 318 487 305 481 297

C478 293 468 289 465 291

L464 292

L466 295

C470 299 471 301 471 308

C471 323 460 334 452 328

L450 327

L449 328

C448 329 448 335 448 341

C449 356 451 360 460 366

C470 373 472 373 478 370

Z

"/>

<path fill="#ff5b03" stroke="none" d="
M338 694

C310 692 293 689 272 683

C176 657 96 591 52 502

C28 452 17 404 17 349

C17 308 22 273 36 235

C90 78 248 -18 412 6

C597 33 727 202 706 388

C695 491 638 583 551 639

C507 668 460 685 406 693

C394 694 347 695 338 694

Z

M234 552

C235 545 236 528 236 513

C237 498 238 483 238 478

C240 470 240 470 233 463

C224 453 222 448 222 437

C221 429 222 427 227 425

C230 424 234 426 237 431

C242 438 247 442 257 446

C265 449 267 449 267 447

C267 444 279 434 283 433

L286 432

L284 430

C283 430 278 426 272 423

C247 410 239 405 226 397

C219 392 209 386 204 383

C199 379 194 376 193 375

C192 372 191 372 185 374

C182 374 175 377 169 379

C163 382 149 388 138 393

C127 397 112 404 105 407

C98 410 89 414 86 415

C80 417 78 418 78 420

C77 427 97 460 119 487

C133 504 152 521 180 541

C187 546 198 552 212 557

C217 559 224 562 226 563

C228 564 231 565 232 565

L234 565

L234 552

Z

M482 557

C485 555 489 552 493 549

C499 545 505 541 529 524

C537 518 544 512 549 507

C560 495 562 490 565 477

C566 469 568 459 570 453

C570 451 571 449 570 449

C570 448 568 448 566 448

C556 448 538 443 532 438

C529 436 529 436 532 424

C534 417 536 414 543 404

C549 394 552 391 559 388

C563 386 565 386 574 386

L585 387

L586 384

C586 383 587 381 587 380

L588 378

L590 378

C595 378 600 386 602 396

C602 399 604 403 604 407

C608 421 605 430 597 438

C593 442 583 446 578 448

L574 448

L575 456

C575 461 575 483 575 506

L575 548

L576 548

C577 548 587 533 594 522

C598 515 603 507 606 503

C609 499 612 495 612 495

C612 494 615 489 619 482

C637 450 643 437 650 416

C651 411 653 405 654 404

C656 398 660 378 660 368

C660 356 658 331 656 322

C654 314 651 310 641 300

C635 296 632 292 632 291

C632 289 632 287 631 285

L630 281

L622 281

C611 280 610 279 612 269

C614 261 616 245 615 241

C615 237 606 234 591 234

C584 233 580 233 579 232

C578 230 576 222 576 210

C575 205 575 199 574 198

L573 195

L572 195

C569 195 558 200 538 210

C515 221 503 227 446 254

C392 278 370 288 347 299

L327 308

L322 303

C320 300 317 298 316 298

C315 298 313 299 311 300

L309 303

L311 304

C312 304 314 306 316 308

C323 318 318 336 307 338

C302 339 299 337 297 333

C294 327 293 327 286 328

C283 329 275 332 268 335

C261 338 252 342 249 344

C244 346 240 348 237 351

L232 356

L234 358

C235 359 239 363 243 365

C247 368 256 374 264 379

C271 385 281 391 286 394

C298 401 337 428 339 430

C339 431 340 434 340 439

C340 445 340 446 343 449

C348 453 350 459 353 471

C356 484 357 487 354 490

C353 491 352 493 352 494

C352 499 382 523 399 531

C420 540 452 553 461 555

C466 557 471 559 472 559

C476 562 478 561 482 557

Z

M457 381

C424 364 394 353 367 346

L355 344

L356 342

C357 341 362 340 374 340

C390 339 390 339 406 343

C434 350 439 352 456 364

C462 368 468 371 468 371

C469 371 471 372 473 374

L476 378

L477 376

C478 374 485 367 492 360

C508 345 516 339 531 334

C535 332 541 330 543 329

C549 327 563 322 569 321

C573 320 575 320 579 321

L584 322

L584 323

C584 324 580 326 575 327

C566 330 556 335 545 341

C535 348 506 367 498 373

C489 380 487 381 482 381

C479 382 477 383 476 385

C475 387 474 388 473 388

C472 388 465 385 457 381

Z

M451 328

C445 324 446 316 456 300

C460 293 463 292 466 295

C474 302 472 320 463 327

C459 331 456 331 451 328

Z

"/>

<path fill="#ec652d" stroke="none" d="
M338 694

C310 692 293 689 272 683

C176 657 96 591 52 502

C28 452 17 404 17 349

C17 308 22 273 36 235

C90 78 248 -18 412 6

C597 33 727 202 706 388

C695 491 638 583 551 639

C507 668 460 685 406 693

C394 694 347 695 338 694

Z

M234 553

C235 546 235 528 236 513

C237 498 237 485 237 484

C238 482 238 479 239 476

L240 470

L241 470

C242 470 245 471 248 473

C252 475 256 476 262 477

C270 478 270 478 276 485

C281 490 284 492 289 494

C306 501 338 500 349 493

L354 490

L353 492

L352 494

L355 498

C359 504 385 524 395 529

C411 536 448 551 459 555

C465 557 471 559 472 560

C476 562 477 561 482 557

C485 555 489 552 493 549

C499 545 505 541 529 524

C537 518 544 512 549 507

C560 495 562 490 565 477

C566 469 568 459 570 454

C570 451 571 449 570 448

L570 447

L571 447

L573 447

L574 449

C575 452 576 485 575 518

L575 548

L576 548

C577 548 587 534 594 522

C598 515 603 507 606 503

C609 499 612 495 612 495

C612 494 615 489 619 482

C637 450 643 437 650 416

C651 411 653 405 654 404

C656 398 660 378 660 368

C660 356 658 331 656 322

C654 314 651 310 641 301

C633 294 633 293 632 287

L631 282

L622 281

C611 279 610 279 612 269

C615 258 616 242 615 240

C613 236 600 233 587 233

C580 233 580 233 579 230

C578 228 577 222 576 213

C575 201 575 198 573 193

C568 184 567 183 559 183

C555 183 545 184 537 184

C528 185 522 185 521 184

C519 183 518 182 517 176

C516 168 508 149 505 144

C498 134 494 134 480 143

C475 146 468 150 466 152

C463 154 457 157 454 159

C448 163 447 163 444 162

C443 161 440 159 438 156

C432 146 429 142 423 134

C418 126 416 125 408 121

C400 116 400 116 394 118

C390 120 388 121 384 127

C381 131 376 138 372 142

C369 146 366 151 365 152

C364 153 363 154 363 154

C362 154 359 151 356 147

C350 140 346 135 337 128

C328 121 324 119 318 121

C315 123 308 133 303 143

C300 150 293 170 293 172

L293 174

L292 174

C289 175 276 171 258 163

C251 160 244 158 241 157

C238 157 237 157 234 160

C231 164 227 177 225 186

C225 189 223 196 222 201

L219 210

L212 209

C208 209 197 209 187 209

C170 209 170 209 167 211

C165 213 165 214 165 221

C165 224 166 231 166 235

C168 245 170 261 170 262

C169 262 167 263 165 263

C162 264 157 265 152 265

C148 266 139 268 132 268

C122 270 118 271 114 273

C109 275 109 275 109 280

C109 290 113 301 125 322

L128 327

L125 329

C117 335 97 353 93 357

C89 362 82 373 81 377

C80 378 79 386 78 395

C76 414 76 419 82 433

C92 452 120 490 138 508

C146 515 165 530 180 541

C187 546 198 552 212 557

C217 559 224 562 226 563

C228 564 231 565 232 565

L234 565

L234 553

Z

M355 484

L355 480

L356 483

C356 486 356 488 355 488

L354 489

L355 484

Z

M353 472

L353 471

L354 472

L354 473

L354 474

L353 474

L353 472

Z

M351 464

L351 463

L352 464

L352 465

L352 466

L351 466

L351 464

Z

M343 449

L340 446

L343 449

C345 451 347 453 347 453

L347 453

L347 453

C347 453 345 451 343 449

Z

M561 447

C562 447 564 447 565 447

L567 448

L563 448

L559 448

L561 447

Z

M555 446

L556 446

L557 446

L557 447

L555 447

L554 447

L555 446

Z

M550 445

L551 445

L552 445

L552 446

L550 446

L549 446

L550 445

Z

M339 444

C339 443 320 434 313 431

C309 430 306 430 298 430

C289 431 289 431 274 423

C248 410 242 406 218 391

C197 377 193 373 193 370

C193 369 195 365 198 362

C204 355 211 350 216 350

C218 350 228 356 247 369

C263 380 280 392 286 395

C291 398 306 408 318 416

C340 431 340 431 340 438

L340 445

L340 445

L339 445

L339 444

Z

M530 437

L529 435

L529 435

L530 434

L531 437

L533 439

L533 439

C532 439 531 438 530 437

Z

M530 430

L530 429

L531 430

L531 431

L531 432

L530 432

L530 430

Z

M540 407

C540 406 541 406 542 405

L544 404

L542 405

C541 406 541 407 540 407

L540 407

L540 407

Z

M552 392

C552 391 554 390 554 390

L554 390

L553 392

C552 393 550 394 550 394

L550 394

L552 392

Z

M457 381

C424 364 394 353 367 346

L355 344

L356 342

C358 340 386 339 393 340

C404 342 425 348 431 350

C440 354 446 357 457 364

C463 368 468 371 468 371

C469 371 471 373 473 375

L477 378

L477 377

C477 375 485 367 498 354

C507 346 510 344 520 339

C526 336 534 332 537 332

C539 331 544 329 546 328

C549 327 556 325 562 323

C573 320 574 320 579 321

L584 322

L584 323

C584 324 580 326 575 327

C566 330 556 335 545 341

C535 348 506 367 498 373

C489 380 487 381 482 381

C479 382 477 383 476 385

C475 387 474 388 473 388

C472 388 465 385 457 381

Z

M579 386

L580 386

L581 386

L581 387

L579 387

L578 387

L579 386

Z

M300 337

C297 336 294 328 294 325

C294 318 306 302 311 304

C314 304 318 311 319 316

C319 322 318 329 315 333

C312 337 304 339 300 337

Z

M451 328

C447 325 446 322 448 316

C449 310 458 296 461 294

C464 292 465 293 469 298

C474 305 471 321 463 327

C459 331 456 331 451 328

Z

"/>

<path fill="#838fa2" stroke="none" d="
M338 694

C310 692 293 689 272 683

C176 657 96 591 52 502

C28 452 17 404 17 349

C17 308 22 273 36 235

C90 78 248 -18 412 6

C597 33 727 202 706 388

C695 491 638 583 551 639

C507 668 460 685 406 693

C394 694 347 695 338 694

Z

M235 559

C235 526 238 473 241 471

L242 470

L248 473

C253 476 257 477 262 478

C269 478 269 478 275 485

C286 496 296 499 320 499

C332 499 345 497 349 494

L351 493

L352 494

C354 501 382 523 399 531

C420 540 452 553 461 555

C466 557 471 559 472 560

C476 562 477 561 482 557

C485 555 489 552 493 549

C499 545 505 541 529 524

C537 518 544 512 549 507

C560 495 562 490 565 477

C566 469 568 459 570 453

C570 451 571 449 570 449

L570 448

L571 448

L573 448

L573 451

C574 454 575 513 575 544

L575 549

L576 549

C577 549 587 535 594 523

C597 517 603 509 605 506

C608 502 613 493 617 487

C620 481 625 473 627 469

C638 450 651 419 658 391

C660 381 660 380 660 359

C659 339 658 327 655 318

C654 313 649 307 641 300

C634 293 633 292 632 288

C632 281 630 280 622 280

C612 280 611 279 614 267

C616 258 617 242 615 239

C614 237 606 234 597 233

C582 232 580 232 579 230

C578 229 578 222 577 214

C576 201 576 199 573 192

C568 182 568 182 547 183

C526 184 521 184 519 183

C519 182 518 179 518 176

C516 166 507 145 502 139

C497 134 492 134 484 139

C482 141 475 146 468 150

C460 155 453 160 451 161

C444 164 442 162 431 143

C425 133 417 125 409 120

C405 118 401 116 400 116

C399 116 396 117 394 118

C389 120 383 127 366 149

L363 154

L362 153

C361 153 360 152 359 150

C356 146 346 135 342 132

C340 130 337 128 336 126

C332 123 325 120 322 120

C319 120 315 124 309 131

C307 134 298 153 298 155

C298 156 297 157 297 159

C296 161 294 165 293 168

L292 174

L290 174

C287 174 274 169 258 163

C242 156 238 156 234 160

C231 163 226 179 225 188

C224 191 223 197 221 202

L218 210

L215 209

C213 209 202 209 191 208

C171 208 171 208 168 211

C164 214 164 215 164 219

C164 222 165 229 166 233

C169 249 170 260 169 262

C168 263 151 265 125 269

C116 270 109 273 108 277

C108 278 108 283 109 288

C111 297 115 304 124 322

L127 327

L123 330

C114 337 98 351 93 357

C91 360 86 366 84 370

C81 375 80 378 78 387

C76 404 75 415 77 421

C81 433 90 449 106 471

C127 500 137 510 169 533

C187 547 191 549 209 556

C216 559 225 563 227 564

C229 565 232 566 233 566

L235 566

L235 559

Z

M328 438

C314 431 309 430 298 430

C289 431 289 431 274 423

C248 410 242 406 218 391

C197 377 193 373 193 370

C193 369 195 365 198 362

C204 355 211 350 216 350

C218 350 228 356 247 369

C263 380 280 392 286 395

C292 399 306 408 318 416

C339 430 339 430 339 437

L339 443

L338 443

C338 443 333 441 328 438

Z

M457 381

C425 365 395 353 367 347

L356 344

L357 343

C358 341 368 340 380 340

C390 340 394 341 406 343

C431 350 442 354 458 365

C461 367 466 370 468 371

C470 372 473 374 474 376

L476 379

L478 376

C479 375 486 367 494 359

C510 344 516 340 535 333

C565 322 573 319 579 321

C581 322 583 323 583 323

L583 324

L575 327

C566 330 556 335 545 341

C535 348 506 367 498 373

C489 380 487 381 482 381

C479 382 477 383 476 385

C475 387 474 388 473 388

C472 388 465 385 457 381

Z

M300 337

C298 336 294 328 294 325

C294 322 299 312 303 308

C309 303 312 303 315 308

C322 317 319 334 310 337

C306 338 302 338 300 337

Z

M452 328

C448 326 448 325 448 320

C448 315 451 309 456 300

C460 294 460 294 463 294

C474 295 474 318 463 327

C459 330 456 331 452 328

Z

"/>

<path fill="#e58250" stroke="none" d="
M341 694

C341 693 338 693 335 693

C332 693 329 693 328 692

C327 692 324 692 323 692

L319 693

L319 692

C318 691 292 687 288 687

C287 687 285 686 285 686

C284 685 261 679 260 680

L259 680

L259 679

L259 678

L254 677

C251 676 243 673 237 671

C231 668 225 666 225 667

L224 667

L224 666

C223 665 213 660 212 661

L211 661

L211 660

L211 659

L208 658

C206 657 204 657 204 657

L203 657

L203 656

C203 655 188 647 186 647

L185 647

L185 646

C185 646 181 643 176 639

C165 633 149 621 141 614

C138 611 135 609 135 609

C134 609 132 606 128 603

C125 600 122 597 122 597

C121 597 119 595 117 593

L113 589

L113 589

L114 589

L107 581

C96 570 84 554 74 539

C70 532 65 526 65 525

L63 523

L64 523

L64 523

L63 520

C62 518 60 517 60 517

L59 517

L59 516

L60 516

L52 500

C48 492 44 484 44 484

C44 484 43 483 43 483

C43 482 42 478 41 474

L38 466

L37 466

L36 466

L36 465

C37 465 35 460 34 454

C32 448 30 441 29 438

L28 433

L27 433

L26 433

L26 432

C27 432 26 424 24 416

C22 408 21 399 20 395

C20 391 19 388 19 388

C19 387 19 385 19 383

C19 381 19 379 18 378

C18 377 18 373 18 369

C18 365 18 362 17 362

C16 361 16 338 17 336

C18 335 18 332 18 328

C18 324 18 320 18 319

C19 319 19 316 19 314

C19 312 19 310 19 309

C20 309 20 307 20 305

C20 304 20 302 20 301

C21 298 25 275 24 274

L24 273

L25 273

L26 273

L27 265

C30 253 40 223 46 211

C49 205 51 199 50 199

L50 198

L51 198

C52 198 56 190 55 189

L55 188

L56 188

C57 188 58 186 60 183

L62 178

L61 178

L61 178

L62 177

C62 177 66 171 70 165

C78 152 91 134 100 124

C104 119 107 116 107 116

C107 115 129 93 130 93

C130 93 133 90 138 86

C148 77 166 64 179 56

C185 52 191 48 191 48

L192 47

L192 47

L192 48

L198 45

C201 43 204 42 204 41

L204 40

L205 40

C205 40 207 40 208 40

L210 39

L210 38

L210 37

L211 37

C212 38 229 30 230 29

C230 29 231 28 232 28

C234 28 263 18 264 17

C264 17 266 16 267 16

L270 16

L271 15

L271 14

L272 14

C273 15 291 11 292 10

L292 9

L295 10

L297 10

L297 9

L297 9

L300 8

C304 8 332 5 334 4

C335 4 339 4 344 4

C348 4 352 4 352 3

C353 2 371 2 373 3

C373 4 377 4 382 4

C386 4 390 4 391 4

C393 5 421 8 425 8

L428 9

L428 9

L428 10

L430 10

L433 9

L433 10

C434 11 457 17 459 17

C460 17 461 17 461 17

C462 18 491 28 493 28

L495 28

L495 29

C495 30 500 32 501 32

L502 31

L502 32

C503 33 513 38 514 37

L515 37

L515 38

L515 39

L516 39

L517 38

L517 39

L517 40

L518 40

L519 39

L519 40

L519 41

L520 41

L521 40

L521 41

C521 41 525 44 530 47

C535 49 541 53 544 55

C547 57 550 58 550 58

C551 58 552 60 554 61

L556 63

L557 62

L558 62

L558 63

C558 63 563 67 568 71

C574 75 582 82 587 86

C592 90 596 93 596 93

C596 93 601 99 607 105

L619 116

L618 116

L618 116

L625 124

C629 129 636 137 640 143

C644 148 648 153 648 153

L649 153

L649 154

L648 154

L654 163

C657 168 662 176 664 181

C667 186 670 190 670 190

L671 190

L671 191

L670 192

L671 192

L672 192

L672 193

L671 194

L672 194

L673 194

L673 195

L672 196

L673 196

L674 196

L674 197

C673 198 681 215 682 216

L683 216

L682 217

C682 218 682 219 683 220

C684 221 685 222 685 223

C685 224 693 249 694 250

C694 250 695 252 695 253

L695 256

L696 257

L697 257

L697 258

C696 258 697 265 699 272

C702 285 706 310 706 316

C706 318 706 320 707 320

C707 321 707 325 707 329

C707 333 707 337 708 337

C709 338 709 359 708 361

C707 361 707 365 707 369

C707 373 707 377 707 378

C706 379 706 381 706 383

C706 385 706 387 706 388

C705 388 705 392 705 395

C704 399 704 402 704 403

C703 404 702 409 702 414

C699 427 694 445 690 459

C688 465 686 471 686 472

C686 473 685 474 685 474

C684 475 677 491 678 492

L678 493

L677 493

C677 493 674 498 672 503

C669 508 665 516 663 519

C660 523 659 527 659 528

L659 529

L658 529

C657 529 654 534 654 536

L654 537

L653 537

C653 537 651 539 650 541

L647 545

L647 545

L648 545

L645 548

C644 549 639 555 635 562

C630 568 622 577 618 581

C614 586 610 590 610 591

C610 591 609 593 607 595

L603 598

L603 598

L602 597

L596 603

C593 607 590 609 590 609

C590 609 587 611 584 614

L578 620

L578 619

L578 619

L568 626

C563 630 554 636 549 639

C544 643 540 646 540 646

L540 647

L539 647

C537 647 522 655 522 656

L522 657

L521 657

L520 656

L520 657

L520 658

L519 658

L518 657

L518 658

L518 659

L517 659

L516 658

L516 659

L516 660

L515 660

L514 659

L514 660

L514 661

L513 661

C513 660 510 661 507 662

C505 664 497 667 491 670

C484 672 478 675 478 675

C478 675 477 676 477 676

C476 676 473 676 471 677

L466 678

L466 679

L466 680

L465 680

C464 679 441 685 440 686

L440 687

L439 686

C439 686 432 687 425 688

C417 690 408 691 404 692

L397 692

L397 693

L397 694

L392 693

C389 693 385 693 384 693

C382 694 342 695 341 694

Z

M235 559

C235 526 238 473 241 471

L242 470

L248 473

C253 476 257 477 262 478

C269 478 269 478 275 485

C286 496 296 499 320 499

C332 499 345 497 348 495

C349 494 351 493 351 493

L352 493

L352 494

L351 495

L354 499

C358 504 359 506 376 518

C383 523 392 528 397 531

C414 539 455 555 463 558

C467 559 472 560 473 561

C476 563 478 562 483 558

C486 555 491 552 494 550

C499 546 505 542 527 527

C539 519 553 505 558 497

C562 491 565 483 565 479

C565 477 566 474 566 471

C567 469 569 463 570 458

L572 450

L571 449

L570 448

L571 448

L573 448

L573 451

C574 454 575 513 575 544

L575 549

L576 549

C577 549 587 535 594 523

C597 517 603 509 605 506

C608 502 613 493 617 487

C620 481 625 473 627 469

C638 450 651 419 658 391

C660 381 660 380 660 359

C659 339 658 327 655 318

C654 313 649 307 641 300

C634 293 633 292 632 288

C632 281 630 280 622 280

C612 280 611 279 614 267

C616 258 617 242 615 239

C614 237 606 234 597 233

C582 232 580 232 579 230

C578 229 578 222 577 214

C576 201 576 199 573 192

C568 182 568 182 547 183

C526 184 521 184 519 183

C519 182 518 179 518 176

C516 166 507 145 502 139

C497 134 492 134 484 139

C482 141 475 146 468 150

C460 155 453 160 451 161

C444 164 442 162 431 143

C425 133 417 125 409 120

C405 118 401 116 400 116

C399 116 396 117 394 118

C389 120 383 127 366 149

L363 154

L362 153

C361 153 360 152 359 150

C356 146 346 135 342 132

C340 130 337 128 336 126

C332 123 325 120 322 120

C319 120 315 124 309 131

C307 134 298 153 298 155

C298 156 297 157 297 159

C296 161 294 165 293 168

L292 174

L290 174

C287 174 274 169 258 163

C242 156 238 156 234 160

C231 163 226 179 225 188

C224 191 223 197 221 202

L218 210

L215 209

C213 209 202 209 191 208

C171 208 171 208 168 211

C164 214 164 215 164 219

C164 222 165 229 166 233

C169 249 170 260 169 262

C168 263 151 265 125 269

C116 270 109 273 108 277

C108 278 108 283 109 288

C111 297 115 304 124 322

L127 327

L123 330

C114 337 98 351 93 357

C91 360 86 366 84 370

C81 375 80 378 78 387

C76 404 75 415 77 421

C81 433 90 449 106 471

C127 500 137 510 169 533

C187 547 191 549 209 556

C216 559 225 563 227 564

C229 565 232 566 233 566

L235 566

L235 559

Z

M328 438

C314 431 309 430 298 430

C289 431 289 431 274 423

C248 410 242 406 218 391

C197 377 193 373 193 370

C193 369 195 365 198 362

C204 355 211 350 216 350

C218 350 228 356 247 369

C263 380 280 392 286 395

C292 399 306 408 318 416

C339 430 339 430 339 437

L339 443

L338 443

C338 443 333 441 328 438

Z

M464 383

C452 377 421 363 400 355

C388 351 358 343 357 344

L356 344

L356 343

C358 341 367 340 380 340

C390 340 394 341 406 343

C431 350 441 354 456 364

C461 367 466 371 468 371

C470 372 473 374 474 376

L476 379

L478 376

C479 375 486 367 494 359

C510 344 516 340 535 333

C565 321 573 320 578 321

C581 322 583 323 583 323

L584 324

L576 326

C572 327 564 330 558 333

C548 338 516 359 497 373

C492 376 487 379 486 380

C480 381 476 383 476 385

L475 387

L473 387

C471 387 467 385 464 383

Z

M299 335

C296 332 294 327 294 325

C294 319 305 304 310 304

C312 304 317 309 318 314

C320 322 316 334 310 336

C306 338 300 337 299 335

Z

M452 328

C448 326 448 325 448 320

C448 315 451 309 456 300

C461 293 463 292 467 297

C470 300 470 301 470 308

C470 320 465 329 457 329

C455 329 453 328 452 328

Z

"/>

<path fill="#d7816e" stroke="none" d="
M341 694

C341 693 338 693 335 693

C332 693 329 693 328 692

C327 692 324 692 323 692

L319 693

L319 692

C318 691 292 687 288 687

C287 687 285 686 285 686

C284 685 261 679 260 680

L259 680

L259 679

L259 678

L254 677

C251 676 243 673 237 671

C231 668 225 666 225 667

L224 667

L224 666

C223 665 213 660 212 661

L211 661

L211 660

L211 659

L208 658

C206 657 204 657 204 657

L203 657

L203 656

C203 655 188 647 186 647

L185 647

L185 646

C185 646 181 643 176 639

C165 633 149 621 141 614

C138 611 135 609 135 609

C134 609 132 606 128 603

C125 600 122 597 122 597

C121 597 119 595 117 593

L113 589

L113 589

L114 589

L107 581

C96 570 84 554 74 539

C70 532 65 526 65 525

L63 523

L64 523

L64 523

L63 520

C62 518 60 517 60 517

L59 517

L59 516

L60 516

L52 500

C48 492 44 484 44 484

C44 484 43 483 43 483

C43 482 42 478 41 474

L38 466

L37 466

L36 466

L36 465

C37 465 35 460 34 454

C32 448 30 441 29 438

L28 433

L27 433

L26 433

L26 432

C27 432 26 424 24 416

C22 408 21 399 20 395

C20 391 19 388 19 388

C19 387 19 385 19 383

C19 381 19 379 18 378

C18 377 18 373 18 369

C18 365 18 362 17 362

C16 361 16 338 17 336

C18 335 18 332 18 328

C18 324 18 320 18 319

C19 319 19 316 19 314

C19 312 19 310 19 309

C20 309 20 307 20 305

C20 304 20 302 20 301

C21 298 25 275 24 274

L24 273

L25 273

L26 273

L27 265

C30 253 40 223 46 211

C49 205 51 199 50 199

L50 198

L51 198

C52 198 56 190 55 189

L55 188

L56 188

C57 188 58 186 60 183

L62 178

L61 178

L61 178

L62 177

C62 177 66 171 70 165

C78 152 91 134 100 124

C104 119 107 116 107 116

C107 115 129 93 130 93

C130 93 133 90 138 86

C148 77 166 64 179 56

C185 52 191 48 191 48

L192 47

L192 47

L192 48

L198 45

C201 43 204 42 204 41

L204 40

L205 40

C205 40 207 40 208 40

L210 39

L210 38

L210 37

L211 37

C212 38 229 30 230 29

C230 29 231 28 232 28

C234 28 263 18 264 17

C264 17 266 16 267 16

L270 16

L271 15

L271 14

L272 14

C273 15 291 11 292 10

L292 9

L295 10

L297 10

L297 9

L297 9

L300 8

C304 8 332 5 334 4

C335 4 339 4 344 4

C348 4 352 4 352 3

C353 2 371 2 373 3

C373 4 377 4 382 4

C386 4 390 4 391 4

C393 5 421 8 425 8

L428 9

L428 9

L428 10

L430 10

L433 9

L433 10

C434 11 457 17 459 17

C460 17 461 17 461 17

C462 18 491 28 493 28

L495 28

L495 29

C495 30 500 32 501 32

L502 31

L502 32

C503 33 513 38 514 37

L515 37

L515 38

L515 39

L516 39

L517 38

L517 39

L517 40

L518 40

L519 39

L519 40

L519 41

L520 41

L521 40

L521 41

C521 41 525 44 530 47

C535 49 541 53 544 55

C547 57 550 58 550 58

C551 58 552 60 554 61

L556 63

L557 62

L558 62

L558 63

C558 63 563 67 568 71

C574 75 582 82 587 86

C592 90 596 93 596 93

C596 93 601 99 607 105

L619 116

L618 116

L618 116

L625 124

C629 129 636 137 640 143

C644 148 648 153 648 153

L649 153

L649 154

L648 154

L654 163

C657 168 662 176 664 181

C667 186 670 190 670 190

L671 190

L671 191

L670 192

L671 192

L672 192

L672 193

L671 194

L672 194

L673 194

L673 195

L672 196

L673 196

L674 196

L674 197

C673 198 681 215 682 216

L683 216

L682 217

C682 218 682 219 683 220

C684 221 685 222 685 223

C685 224 693 249 694 250

C694 250 695 252 695 253

L695 256

L696 257

L697 257

L697 258

C696 258 697 265 699 272

C702 285 706 310 706 316

C706 318 706 320 707 320

C707 321 707 325 707 329

C707 333 707 337 708 337

C709 338 709 359 708 361

C707 361 707 365 707 369

C707 373 707 377 707 378

C706 379 706 381 706 383

C706 385 706 387 706 388

C705 388 705 392 705 395

C704 399 704 402 704 403

C703 404 702 409 702 414

C699 427 694 445 690 459

C688 465 686 471 686 472

C686 473 685 474 685 474

C684 475 677 491 678 492

L678 493

L677 493

C677 493 674 498 672 503

C669 508 665 516 663 519

C660 523 659 527 659 528

L659 529

L658 529

C657 529 654 534 654 536

L654 537

L653 537

C653 537 651 539 650 541

L647 545

L647 545

L648 545

L645 548

C644 549 639 555 635 562

C630 568 622 577 618 581

C614 586 610 590 610 591

C610 591 609 593 607 595

L603 598

L603 598

L602 597

L596 603

C593 607 590 609 590 609

C590 609 587 611 584 614

L578 620

L578 619

L578 619

L568 626

C563 630 554 636 549 639

C544 643 540 646 540 646

L540 647

L539 647

C537 647 522 655 522 656

L522 657

L521 657

L520 656

L520 657

L520 658

L519 658

L518 657

L518 658

L518 659

L517 659

L516 658

L516 659

L516 660

L515 660

L514 659

L514 660

L514 661

L513 661

C513 660 510 661 507 662

C505 664 497 667 491 670

C484 672 478 675 478 675

C478 675 477 676 477 676

C476 676 473 676 471 677

L466 678

L466 679

L466 680

L465 680

C464 679 441 685 440 686

L440 687

L439 686

C439 686 432 687 425 688

C417 690 408 691 404 692

L397 692

L397 693

L397 694

L392 693

C389 693 385 693 384 693

C382 694 342 695 341 694

Z

M235 563

C235 562 235 546 236 528

C237 497 239 474 241 472

L242 471

L248 474

C252 476 257 477 262 478

C270 479 270 479 276 486

C280 490 284 493 285 494

C286 494 289 495 292 496

C295 497 300 498 310 499

C322 500 325 500 334 499

C340 498 346 496 348 495

C350 494 351 493 352 493

L352 493

L352 494

L351 495

L354 499

C358 504 359 506 376 518

C383 523 392 528 397 531

C414 539 455 555 463 558

C467 559 472 560 473 561

C476 563 478 562 483 558

C486 555 491 552 494 550

C499 546 505 542 527 527

C539 519 553 505 558 497

C562 491 565 483 565 479

C565 477 566 474 566 471

C567 469 569 463 570 458

L572 450

L571 449

L570 448

L571 448

L573 448

L574 453

C574 455 574 478 575 503

C575 527 575 548 575 548

L575 549

L576 549

C577 549 588 533 595 522

C597 518 602 511 605 506

C615 492 637 451 643 437

C648 424 657 397 659 387

C662 373 661 353 657 329

C655 315 653 312 643 301

C635 293 633 291 633 288

C631 281 631 280 622 280

C617 279 613 279 613 278

C612 277 612 274 613 268

C616 256 617 243 616 240

C615 239 613 237 611 236

C606 234 592 232 591 233

C590 233 588 233 585 232

C578 232 578 231 577 213

C576 201 576 199 573 193

C569 183 567 182 559 182

C555 182 545 182 538 183

C530 184 523 184 522 184

L519 183

L518 178

C518 171 515 163 509 150

C503 138 499 134 493 135

C489 136 477 143 466 151

C463 153 457 156 454 158

C446 163 444 163 440 157

C434 147 427 137 422 131

C418 125 416 123 408 120

C400 115 400 115 394 117

C390 119 388 120 381 130

C368 147 363 153 362 153

C362 153 359 150 356 146

C351 140 347 135 337 127

C328 120 322 118 317 121

C311 125 303 140 295 161

L291 174

L288 173

C284 173 270 168 257 162

C243 155 240 155 236 158

C231 161 226 173 224 188

C224 191 222 198 221 202

L218 209

L214 208

C211 208 201 208 190 208

C170 208 170 208 167 210

C164 213 164 214 164 221

C164 225 165 231 165 235

C167 243 169 261 169 261

C168 262 138 267 131 268

C121 269 116 270 112 273

C108 275 108 275 108 280

C108 290 112 300 124 322

L127 327

L124 329

C118 333 97 352 93 357

C88 363 81 374 80 378

C79 379 78 386 77 395

C74 415 75 421 83 436

C88 447 105 470 119 488

C132 504 142 513 165 530

C187 547 189 548 211 557

C228 565 231 566 233 566

L235 566

L235 563

Z

M328 438

C314 431 309 430 298 430

C289 431 289 431 274 423

C248 410 242 406 218 391

C197 377 193 373 193 370

C193 369 195 365 198 362

C204 355 211 350 216 350

C218 350 228 356 247 369

C263 380 280 392 286 395

C292 399 306 408 318 416

C339 430 339 430 339 437

L339 443

L338 443

C338 443 333 441 328 438

Z

M464 383

C452 377 421 363 400 355

C388 351 358 343 357 344

L356 344

L356 343

C358 341 367 340 380 340

C390 340 394 341 406 343

C431 350 441 354 456 364

C461 367 466 371 468 371

C470 372 473 374 474 376

L476 379

L478 376

C479 375 486 367 494 359

C510 344 516 340 535 333

C565 321 573 320 578 321

C581 322 583 323 583 323

L584 324

L576 326

C572 327 564 330 558 333

C548 338 516 359 497 373

C492 376 487 379 486 380

C480 381 476 383 476 385

L475 387

L473 387

C471 387 467 385 464 383

Z

M299 335

C296 332 294 327 294 325

C294 319 305 304 310 304

C312 304 317 309 318 314

C320 322 316 334 310 336

C306 338 300 337 299 335

Z

M451 327

C446 323 447 314 456 300

C461 293 463 292 467 297

C470 300 470 301 470 308

C470 316 468 322 464 326

C460 330 455 330 451 327

Z

"/>

<path fill="#ff8454" stroke="none" d="
M341 694

C341 693 338 693 335 693

C332 693 329 693 328 692

C327 692 324 692 323 692

L319 693

L319 692

C318 691 292 687 288 687

C287 687 285 686 285 686

C284 685 261 679 260 680

L259 680

L259 679

L259 678

L254 677

C251 676 243 673 237 671

C231 668 225 666 225 667

L224 667

L224 666

C223 665 213 660 212 661

L211 661

L211 660

L211 659

L208 658

C206 657 204 657 204 657

L203 657

L203 656

C203 655 188 647 186 647

L185 647

L185 646

C185 646 181 643 176 639

C165 633 149 621 141 614

C138 611 135 609 135 609

C134 609 132 606 128 603

C125 600 122 597 122 597

C121 597 119 595 117 593

L113 589

L113 589

L114 589

L107 581

C96 570 84 554 74 539

C70 532 65 526 65 525

L63 523

L64 523

L64 523

L63 520

C62 518 60 517 60 517

L59 517

L59 516

L60 516

L52 500

C48 492 44 484 44 484

C44 484 43 483 43 483

C43 482 42 478 41 474

L38 466

L37 466

L36 466

L36 465

C37 465 35 460 34 454

C32 448 30 441 29 438

L28 433

L27 433

L26 433

L26 432

C27 432 26 424 24 416

C22 408 21 399 20 395

C20 391 19 388 19 388

C19 387 19 385 19 383

C19 381 19 379 18 378

C18 377 18 373 18 369

C18 365 18 362 17 362

C16 361 16 338 17 336

C18 335 18 332 18 328

C18 324 18 320 18 319

C19 319 19 316 19 314

C19 312 19 310 19 309

C20 309 20 307 20 305

C20 304 20 302 20 301

C21 298 25 275 24 274

L24 273

L25 273

L26 273

L27 265

C30 253 40 223 46 211

C49 205 51 199 50 199

L50 198

L51 198

C52 198 56 190 55 189

L55 188

L56 188

C57 188 58 186 60 183

L62 178

L61 178

L61 178

L62 177

C62 177 66 171 70 165

C78 152 91 134 100 124

C104 119 107 116 107 116

C107 115 129 93 130 93

C130 93 133 90 138 86

C148 77 166 64 179 56

C185 52 191 48 191 48

L192 47

L192 47

L192 48

L198 45

C201 43 204 42 204 41

L204 40

L205 40

C205 40 207 40 208 40

L210 39

L210 38

L210 37

L211 37

C212 38 229 30 230 29

C230 29 231 28 232 28

C234 28 263 18 264 17

C264 17 266 16 267 16

L270 16

L271 15

L271 14

L272 14

C273 15 291 11 292 10

L292 9

L295 10

L297 10

L297 9

L297 9

L300 8

C304 8 332 5 334 4

C335 4 339 4 344 4

C348 4 352 4 352 3

C353 2 371 2 373 3

C373 4 377 4 382 4

C386 4 390 4 391 4

C393 5 421 8 425 8

L428 9

L428 9

L428 10

L430 10

L433 9

L433 10

C434 11 457 17 459 17

C460 17 461 17 461 17

C462 18 491 28 493 28

L495 28

L495 29

C495 30 500 32 501 32

L502 31

L502 32

C503 33 513 38 514 37

L515 37

L515 38

L515 39

L516 39

L517 38

L517 39

L517 40

L518 40

L519 39

L519 40

L519 41

L520 41

L521 40

L521 41

C521 41 525 44 530 47

C535 49 541 53 544 55

C547 57 550 58 550 58

C551 58 552 60 554 61

L556 63

L557 62

L558 62

L558 63

C558 63 563 67 568 71

C574 75 582 82 587 86

C592 90 596 93 596 93

C596 93 601 99 607 105

L619 116

L618 116

L618 116

L625 124

C629 129 636 137 640 143

C644 148 648 153 648 153

L649 153

L649 154

L648 154

L654 163

C657 168 662 176 664 181

C667 186 670 190 670 190

L671 190

L671 191

L670 192

L671 192

L672 192

L672 193

L671 194

L672 194

L673 194

L673 195

L672 196

L673 196

L674 196

L674 197

C673 198 681 215 682 216

L683 216

L682 217

C682 218 682 219 683 220

C684 221 685 222 685 223

C685 224 693 249 694 250

C694 250 695 252 695 253

L695 256

L696 257

L697 257

L697 258

C696 258 697 265 699 272

C702 285 706 310 706 316

C706 318 706 320 707 320

C707 321 707 325 707 329

C707 333 707 337 708 337

C709 338 709 359 708 361

C707 361 707 365 707 369

C707 373 707 377 707 378

C706 379 706 381 706 383

C706 385 706 387 706 388

C705 388 705 392 705 395

C704 399 704 402 704 403

C703 404 702 409 702 414

C699 427 694 445 690 459

C688 465 686 471 686 472

C686 473 685 474 685 474

C684 475 677 491 678 492

L678 493

L677 493

C677 493 674 498 672 503

C669 508 665 516 663 519

C660 523 659 527 659 528

L659 529

L658 529

C657 529 654 534 654 536

L654 537

L653 537

C653 537 651 539 650 541

L647 545

L647 545

L648 545

L645 548

C644 549 639 555 635 562

C630 568 622 577 618 581

C614 586 610 590 610 591

C610 591 609 593 607 595

L603 598

L603 598

L602 597

L596 603

C593 607 590 609 590 609

C590 609 587 611 584 614

L578 620

L578 619

L578 619

L568 626

C563 630 554 636 549 639

C544 643 540 646 540 646

L540 647

L539 647

C537 647 522 655 522 656

L522 657

L521 657

L520 656

L520 657

L520 658

L519 658

L518 657

L518 658

L518 659

L517 659

L516 658

L516 659

L516 660

L515 660

L514 659

L514 660

L514 661

L513 661

C513 660 510 661 507 662

C505 664 497 667 491 670

C484 672 478 675 478 675

C478 675 477 676 477 676

C476 676 473 676 471 677

L466 678

L466 679

L466 680

L465 680

C464 679 441 685 440 686

L440 687

L439 686

C439 686 432 687 425 688

C417 690 408 691 404 692

L397 692

L397 693

L397 694

L392 693

C389 693 385 693 384 693

C382 694 342 695 341 694

Z

M236 546

C236 535 237 521 237 515

C237 501 239 482 240 475

L241 471

L242 471

C242 471 245 472 248 474

C252 476 257 477 262 478

C270 479 270 479 275 485

C280 490 287 496 290 495

L290 495

L291 496

C293 499 323 501 337 499

C341 498 347 496 348 495

L350 494

L351 494

C351 495 352 497 354 499

C358 504 359 506 376 518

C383 523 392 528 397 531

C414 539 455 555 463 558

C467 559 472 560 473 561

C476 563 478 562 483 558

C486 555 491 552 494 550

C499 546 505 542 527 527

C539 519 553 505 558 497

C562 491 565 483 565 479

C565 477 566 474 566 472

C567 469 569 464 570 460

C571 455 572 451 572 450

L573 449

L573 457

C574 462 574 484 574 507

L575 549

L576 550

L577 550

L584 540

C588 534 593 526 595 522

C598 517 603 510 606 506

C609 501 614 493 617 487

C621 481 625 473 627 469

C636 454 644 438 651 414

C659 391 661 381 661 369

C661 349 657 320 654 314

C653 312 648 307 643 302

C634 293 633 291 633 287

C632 281 631 280 622 279

C617 279 614 278 613 277

C612 276 612 274 613 269

C614 266 615 258 616 252

C617 240 616 238 610 236

C607 234 595 232 586 232

C579 231 578 230 577 213

C576 201 576 199 573 192

C571 188 569 184 568 183

C565 182 555 182 537 183

C530 184 523 184 522 184

C520 183 519 182 518 176

C517 168 510 150 506 143

C499 133 495 132 479 142

C473 146 466 151 464 152

C462 153 457 156 454 158

C446 163 444 163 440 157

C424 131 419 125 408 120

C400 115 400 115 394 117

C390 119 388 120 381 130

C368 147 363 153 362 153

C362 153 359 150 356 146

C351 140 347 135 337 127

C328 120 322 118 317 121

C311 125 303 140 295 161

L291 174

L288 173

C284 173 270 168 257 162

C243 155 240 155 236 158

C231 161 226 173 224 188

C224 191 222 198 221 202

L218 209

L214 208

C211 208 201 208 190 208

C170 208 170 208 167 211

C164 213 164 214 164 221

C164 224 165 231 165 235

C167 244 169 261 169 261

C168 262 139 267 131 268

C121 269 116 270 112 273

C108 275 108 275 108 280

C108 290 112 301 124 322

L127 327

L124 329

C119 332 99 350 95 354

C90 359 82 371 81 375

C80 377 78 386 77 395

C74 414 75 420 82 433

C93 456 123 496 140 511

C164 531 187 548 202 554

C208 556 217 560 222 562

C226 564 231 566 233 566

L235 566

L236 546

Z

M328 438

C314 431 309 430 298 430

C289 431 289 431 274 423

C248 410 242 406 218 391

C197 377 193 373 193 370

C193 369 195 365 198 362

C204 355 211 350 216 350

C218 350 228 356 247 369

C263 380 280 392 286 395

C292 399 306 408 318 416

C339 430 339 430 339 437

L339 443

L338 443

C338 443 333 441 328 438

Z

M464 383

C457 379 434 369 418 362

C402 356 388 351 374 347

C366 345 359 344 359 343

L358 343

L360 342

C361 341 368 340 376 340

C390 340 392 340 405 343

C413 345 423 348 427 350

C435 352 450 359 452 361

C455 364 465 370 468 371

C470 372 473 374 474 376

L476 379

L478 376

C479 375 486 367 494 359

C510 344 516 340 535 333

C566 321 572 320 578 321

L583 322

L583 323

L583 324

L576 326

C572 327 564 330 558 333

C548 338 516 359 497 373

C492 376 487 379 486 380

C480 381 476 383 476 385

L475 387

L473 387

C471 387 467 385 464 383

Z

M299 335

C296 332 294 327 294 325

C294 319 305 304 310 304

C312 304 317 309 318 314

C320 322 316 334 310 336

C306 338 300 337 299 335

Z

M451 327

C446 323 447 314 456 300

C461 293 463 292 467 297

C470 300 470 301 470 308

C470 316 468 322 464 326

C460 330 455 330 451 327

Z

"/>

<path fill="#ffd900" stroke="none" d="
M341 694

C341 693 338 693 335 693

C332 693 329 693 328 692

C327 692 324 692 323 692

L319 693

L319 692

C318 691 292 687 288 687

C287 687 285 686 285 686

C284 685 261 679 260 680

L259 680

L259 679

L259 678

L254 677

C251 676 243 673 237 671

C231 668 225 666 225 667

L224 667

L224 666

C223 665 213 660 212 661

L211 661

L211 660

L211 659

L208 658

C206 657 204 657 204 657

L203 657

L203 656

C203 655 188 647 186 647

L185 647

L185 646

C185 646 181 643 176 639

C165 633 149 621 141 614

C138 611 135 609 135 609

C134 609 132 606 128 603

C125 600 122 597 122 597

C121 597 119 595 117 593

L113 589

L113 589

L114 589

L107 581

C96 570 84 554 74 539

C70 532 65 526 65 525

L63 523

L64 523

L64 523

L63 520

C62 518 60 517 60 517

L59 517

L59 516

L60 516

L52 500

C48 492 44 484 44 484

C44 484 43 483 43 483

C43 482 42 478 41 474

L38 466

L37 466

L36 466

L36 465

C37 465 35 460 34 454

C32 448 30 441 29 438

L28 433

L27 433

L26 433

L26 432

C27 432 26 424 24 416

C22 408 21 399 20 395

C20 391 19 388 19 388

C19 387 19 385 19 383

C19 381 19 379 18 378

C18 377 18 373 18 369

C18 365 18 362 17 362

C16 361 16 338 17 336

C18 335 18 332 18 328

C18 324 18 320 18 319

C19 319 19 316 19 314

C19 312 19 310 19 309

C20 309 20 307 20 305

C20 304 20 302 20 301

C21 298 25 275 24 274

L24 273

L25 273

L26 273

L27 265

C30 253 40 223 46 211

C49 205 51 199 50 199

L50 198

L51 198

C52 198 56 190 55 189

L55 188

L56 188

C57 188 58 186 60 183

L62 178

L61 178

L61 178

L62 177

C62 177 66 171 70 165

C78 152 91 134 100 124

C104 119 107 116 107 116

C107 115 129 93 130 93

C130 93 133 90 138 86

C148 77 166 64 179 56

C185 52 191 48 191 48

L192 47

L192 47

L192 48

L198 45

C201 43 204 42 204 41

L204 40

L205 40

C205 40 207 40 208 40

L210 39

L210 38

L210 37

L211 37

C212 38 229 30 230 29

C230 29 231 28 232 28

C234 28 263 18 264 17

C264 17 266 16 267 16

L270 16

L271 15

L271 14

L272 14

C273 15 291 11 292 10

L292 9

L295 10

L297 10

L297 9

L297 9

L300 8

C304 8 332 5 334 4

C335 4 339 4 344 4

C348 4 352 4 352 3

C353 2 371 2 373 3

C373 4 377 4 382 4

C386 4 390 4 391 4

C393 5 421 8 425 8

L428 9

L428 9

L428 10

L430 10

L433 9

L433 10

C434 11 457 17 459 17

C460 17 461 17 461 17

C462 18 491 28 493 28

L495 28

L495 29

C495 30 500 32 501 32

L502 31

L502 32

C503 33 513 38 514 37

L515 37

L515 38

L515 39

L516 39

L517 38

L517 39

L517 40

L518 40

L519 39

L519 40

L519 41

L520 41

L521 40

L521 41

C521 41 525 44 530 47

C535 49 541 53 544 55

C547 57 550 58 550 58

C551 58 552 60 554 61

L556 63

L557 62

L558 62

L558 63

C558 63 563 67 568 71

C574 75 582 82 587 86

C592 90 596 93 596 93

C596 93 601 99 607 105

L619 116

L618 116

L618 116

L625 124

C629 129 636 137 640 143

C644 148 648 153 648 153

L649 153

L649 154

L648 154

L654 163

C657 168 662 176 664 181

C667 186 670 190 670 190

L671 190

L671 191

L670 192

L671 192

L672 192

L672 193

L671 194

L672 194

L673 194

L673 195

L672 196

L673 196

L674 196

L674 197

C673 198 681 215 682 216

L683 216

L682 217

C682 218 682 219 683 220

C684 221 685 222 685 223

C685 224 693 249 694 250

C694 250 695 252 695 253

L695 256

L696 257

L697 257

L697 258

C696 258 697 265 699 272

C702 285 706 310 706 316

C706 318 706 320 707 320

C707 321 707 325 707 329

C707 333 707 337 708 337

C709 338 709 359 708 361

C707 361 707 365 707 369

C707 373 707 377 707 378

C706 379 706 381 706 383

C706 385 706 387 706 388

C705 388 705 392 705 395

C704 399 704 402 704 403

C703 404 702 409 702 414

C699 427 694 445 690 459

C688 465 686 471 686 472

C686 473 685 474 685 474

C684 475 677 491 678 492

L678 493

L677 493

C677 493 674 498 672 503

C669 508 665 516 663 519

C660 523 659 527 659 528

L659 529

L658 529

C657 529 654 534 654 536

L654 537

L653 537

C653 537 651 539 650 541

L647 545

L647 545

L648 545

L645 548

C644 549 639 555 635 562

C630 568 622 577 618 581

C614 586 610 590 610 591

C610 591 609 593 607 595

L603 598

L603 598

L602 597

L596 603

C593 607 590 609 590 609

C590 609 587 611 584 614

L578 620

L578 619

L578 619

L568 626

C563 630 554 636 549 639

C544 643 540 646 540 646

L540 647

L539 647

C537 647 522 655 522 656

L522 657

L521 657

L520 656

L520 657

L520 658

L519 658

L518 657

L518 658

L518 659

L517 659

L516 658

L516 659

L516 660

L515 660

L514 659

L514 660

L514 661

L513 661

C513 660 510 661 507 662

C505 664 497 667 491 670

C484 672 478 675 478 675

C478 675 477 676 477 676

C476 676 473 676 471 677

L466 678

L466 679

L466 680

L465 680

C464 679 441 685 440 686

L440 687

L439 686

C439 686 432 687 425 688

C417 690 408 691 404 692

L397 692

L397 693

L397 694

L392 693

C389 693 385 693 384 693

C382 694 342 695 341 694

Z

M236 546

C236 535 237 521 237 515

C237 501 239 482 240 475

L241 471

L242 471

C242 471 245 472 248 474

C252 476 257 477 262 478

C270 479 270 479 275 485

C284 495 293 499 314 500

C328 500 343 498 348 495

L350 494

L351 494

C351 495 352 497 354 499

C358 504 359 506 376 518

C383 523 392 528 397 531

C414 539 455 555 463 558

C467 559 472 560 473 561

C476 563 478 562 483 558

C486 555 491 552 494 550

C499 546 505 542 527 527

C539 519 553 505 558 497

C562 491 565 483 565 479

C565 477 566 474 566 472

C567 469 569 464 570 460

C571 455 572 451 572 450

L573 449

L573 457

C574 462 574 484 574 507

L575 549

L576 550

L577 550

L584 540

C588 534 593 526 595 522

C598 517 603 510 606 506

C609 501 614 493 617 487

C621 481 625 473 627 469

C636 454 644 438 651 414

C659 391 661 381 661 369

C661 349 657 320 654 314

C653 312 648 307 643 302

C634 293 633 291 633 287

C632 281 631 280 622 279

C617 279 614 278 613 277

C612 276 612 274 613 269

C614 266 615 258 616 252

C617 240 616 238 610 236

C607 234 595 232 586 232

C579 231 578 230 577 213

C576 201 576 199 573 192

C571 188 569 184 568 183

C565 182 555 182 537 183

C530 184 523 184 522 184

C520 183 519 182 518 176

C517 168 510 150 506 143

C499 133 495 132 479 142

C473 146 466 151 464 152

C462 153 457 156 454 158

C446 163 444 163 440 157

C424 131 419 125 408 120

C400 115 400 115 394 117

C390 119 388 120 381 130

C368 147 363 153 362 153

C362 153 359 150 356 146

C351 140 347 135 337 127

C328 120 322 118 317 121

C311 125 303 140 295 161

L291 174

L288 173

C284 173 270 168 257 162

C243 155 240 155 236 158

C231 161 226 173 224 188

C224 191 222 198 221 202

L218 209

L214 208

C211 208 201 208 190 208

C170 208 170 208 167 211

C164 213 164 214 164 221

C164 224 165 231 165 235

C167 244 169 261 169 261

C168 262 139 267 131 268

C121 269 116 270 112 273

C108 275 108 275 108 280

C108 290 112 301 124 322

L127 327

L124 329

C119 332 99 350 95 354

C90 359 82 371 81 375

C80 377 78 386 77 395

C74 414 75 420 82 433

C93 456 123 496 140 511

C164 531 187 548 202 554

C208 556 217 560 222 562

C226 564 231 566 233 566

L235 566

L236 546

Z

M328 438

C314 431 309 430 298 430

C289 431 289 431 274 423

C248 410 242 406 218 391

C197 377 193 373 193 370

C193 369 195 365 198 362

C204 355 211 350 216 350

C218 350 228 356 247 369

C263 380 280 392 286 395

C292 399 306 408 318 416

C339 430 339 430 339 437

L339 443

L338 443

C338 443 333 441 328 438

Z

M464 383

C457 379 434 369 418 362

C402 356 388 351 374 347

C366 345 359 343 359 343

L358 342

L361 342

C363 341 370 341 377 341

C389 340 390 340 404 343

C431 350 438 353 457 365

C462 368 467 371 468 371

C468 371 471 373 473 376

C475 378 477 380 477 380

L478 380

L478 378

C478 376 480 373 484 369

C506 347 514 341 531 335

C535 333 542 331 545 329

C562 323 576 320 581 323

L583 324

L576 326

C572 327 564 330 558 333

C548 338 516 359 497 373

C492 376 487 379 486 380

C480 381 476 383 476 385

L475 387

L473 387

C471 387 467 385 464 383

Z

M299 335

C294 330 294 325 297 318

C299 313 308 304 310 304

C313 304 317 309 318 314

C320 322 316 334 310 336

C306 338 300 337 299 335

Z

M451 326

C448 324 448 323 448 319

C449 311 459 294 463 294

C464 294 466 295 467 297

C470 300 470 301 470 308

C470 316 468 322 464 326

C460 330 454 330 451 326

Z

"/>

<path fill="#d5977f" stroke="none" d="
M341 694

C341 693 338 693 335 693

C332 693 329 693 328 692

C327 692 324 692 323 692

L319 693

L319 692

C318 691 292 687 288 687

C287 687 285 686 285 686

C284 685 261 679 260 680

L259 680

L259 679

L259 678

L254 677

C251 676 243 673 237 671

C231 668 225 666 225 667

L224 667

L224 666

C223 665 213 660 212 661

L211 661

L211 660

L211 659

L208 658

C206 657 204 657 204 657

L203 657

L203 656

C203 655 188 647 186 647

L185 647

L185 646

C185 646 181 643 176 639

C165 633 149 621 141 614

C138 611 135 609 135 609

C134 609 132 606 128 603

C125 600 122 597 122 597

C121 597 119 595 117 593

L113 589

L113 589

L114 589

L107 581

C96 570 84 554 74 539

C70 532 65 526 65 525

L63 523

L64 523

L64 523

L63 520

C62 518 60 517 60 517

L59 517

L59 516

L60 516

L52 500

C48 492 44 484 44 484

C44 484 43 483 43 483

C43 482 42 478 41 474

L38 466

L37 466

L36 466

L36 465

C37 465 35 460 34 454

C32 448 30 441 29 438

L28 433

L27 433

L26 433

L26 432

C27 432 26 424 24 416

C22 408 21 399 20 395

C20 391 19 388 19 388

C19 387 19 385 19 383

C19 381 19 379 18 378

C18 377 18 373 18 369

C18 365 18 362 17 362

C16 361 16 338 17 336

C18 335 18 332 18 328

C18 324 18 320 18 319

C19 319 19 316 19 314

C19 312 19 310 19 309

C20 309 20 307 20 305

C20 304 20 302 20 301

C21 298 25 275 24 274

L24 273

L25 273

L26 273

L27 265

C30 253 40 223 46 211

C49 205 51 199 50 199

L50 198

L51 198

C52 198 56 190 55 189

L55 188

L56 188

C57 188 58 186 60 183

L62 178

L61 178

L61 178

L62 177

C62 177 66 171 70 165

C78 152 91 134 100 124

C104 119 107 116 107 116

C107 115 129 93 130 93

C130 93 133 90 138 86

C148 77 166 64 179 56

C185 52 191 48 191 48

L192 47

L192 47

L192 48

L198 45

C201 43 204 42 204 41

L204 40

L205 40

C205 40 207 40 208 40

L210 39

L210 38

L210 37

L211 37

C212 38 229 30 230 29

C230 29 231 28 232 28

C234 28 263 18 264 17

C264 17 266 16 267 16

L270 16

L271 15

L271 14

L272 14

C273 15 291 11 292 10

L292 9

L295 10

L297 10

L297 9

L297 9

L300 8

C304 8 332 5 334 4

C335 4 339 4 344 4

C348 4 352 4 352 3

C353 2 371 2 373 3

C373 4 377 4 382 4

C386 4 390 4 391 4

C393 5 421 8 425 8

L428 9

L428 9

L428 10

L430 10

L433 9

L433 10

C434 11 457 17 459 17

C460 17 461 17 461 17

C462 18 491 28 493 28

L495 28

L495 29

C495 30 500 32 501 32

L502 31

L502 32

C503 33 513 38 514 37

L515 37

L515 38

L515 39

L516 39

L517 38

L517 39

L517 40

L518 40

L519 39

L519 40

L519 41

L520 41

L521 40

L521 41

C521 41 525 44 530 47

C535 49 541 53 544 55

C547 57 550 58 550 58

C551 58 552 60 554 61

L556 63

L557 62

L558 62

L558 63

C558 63 563 67 568 71

C574 75 582 82 587 86

C592 90 596 93 596 93

C596 93 601 99 607 105

L619 116

L618 116

L618 116

L625 124

C629 129 636 137 640 143

C644 148 648 153 648 153

L649 153

L649 154

L648 154

L654 163

C657 168 662 176 664 181

C667 186 670 190 670 190

L671 190

L671 191

L670 192

L671 192

L672 192

L672 193

L671 194

L672 194

L673 194

L673 195

L672 196

L673 196

L674 196

L674 197

C673 198 681 215 682 216

L683 216

L682 217

C682 218 682 219 683 220

C684 221 685 222 685 223

C685 224 693 249 694 250

C694 250 695 252 695 253

L695 256

L696 257

L697 257

L697 258

C696 258 697 265 699 272

C702 285 706 310 706 316

C706 318 706 320 707 320

C707 321 707 325 707 329

C707 333 707 337 708 337

C709 338 709 359 708 361

C707 361 707 365 707 369

C707 373 707 377 707 378

C706 379 706 381 706 383

C706 385 706 387 706 388

C705 388 705 392 705 395

C704 399 704 402 704 403

C703 404 702 409 702 414

C699 427 694 445 690 459

C688 465 686 471 686 472

C686 473 685 474 685 474

C684 475 677 491 678 492

L678 493

L677 493

C677 493 674 498 672 503

C669 508 665 516 663 519

C660 523 659 527 659 528

L659 529

L658 529

C657 529 654 534 654 536

L654 537

L653 537

C653 537 651 539 650 541

L647 545

L647 545

L648 545

L645 548

C644 549 639 555 635 562

C630 568 622 577 618 581

C614 586 610 590 610 591

C610 591 609 593 607 595

L603 598

L603 598

L602 597

L596 603

C593 607 590 609 590 609

C590 609 587 611 584 614

L578 620

L578 619

L578 619

L568 626

C563 630 554 636 549 639

C544 643 540 646 540 646

L540 647

L539 647

C537 647 522 655 522 656

L522 657

L521 657

L520 656

L520 657

L520 658

L519 658

L518 657

L518 658

L518 659

L517 659

L516 658

L516 659

L516 660

L515 660

L514 659

L514 660

L514 661

L513 661

C513 660 510 661 507 662

C505 664 497 667 491 670

C484 672 478 675 478 675

C478 675 477 676 477 676

C476 676 473 676 471 677

L466 678

L466 679

L466 680

L465 680

C464 679 441 685 440 686

L440 687

L439 686

C439 686 432 687 425 688

C417 690 408 691 404 692

L397 692

L397 693

L397 694

L392 693

C389 693 385 693 384 693

C382 694 342 695 341 694

Z

M236 546

C236 535 237 521 237 515

C237 501 239 482 240 475

L241 471

L242 471

C242 471 245 472 248 474

C252 476 257 477 262 478

C270 479 270 479 275 485

C284 495 293 499 314 500

C328 500 343 498 348 495

L350 494

L351 494

C351 495 352 497 354 499

C358 504 359 506 376 518

C383 523 392 528 397 531

C414 539 455 555 463 558

C467 559 472 560 473 561

C476 563 478 562 483 558

C486 555 491 552 494 550

C499 546 505 542 527 527

C539 519 553 505 558 497

C562 491 565 483 565 479

C565 477 566 474 566 472

C567 469 569 464 570 460

C571 455 572 451 572 450

L573 449

L573 457

C574 462 574 484 574 507

L575 549

L576 550

L577 550

L584 540

C588 534 593 526 595 522

C598 517 603 510 606 506

C609 501 614 493 617 487

C621 481 625 473 627 469

C636 454 644 438 651 414

C659 391 661 381 661 369

C661 349 657 320 654 314

C653 312 648 307 643 302

C634 293 633 291 633 287

C632 281 631 280 622 279

C617 279 614 278 613 277

C612 276 612 274 613 269

C614 266 615 258 616 252

C617 240 616 238 610 236

C607 234 595 232 586 232

C579 231 578 230 577 213

C576 201 576 199 573 192

C571 188 569 184 568 183

C565 182 555 182 537 183

C530 184 523 184 522 184

C520 183 519 182 518 176

C517 168 510 150 506 143

C499 133 495 132 479 142

C473 146 466 151 464 152

C462 153 457 156 454 158

C446 163 444 163 440 157

C424 131 419 125 408 120

C400 115 400 115 394 117

C390 119 388 120 381 130

C368 147 363 153 362 153

C362 153 359 150 356 146

C351 140 347 135 337 127

C328 120 322 118 317 121

C311 125 303 140 295 161

L291 174

L288 173

C284 173 270 168 257 162

C243 155 240 155 236 158

C231 161 226 173 224 188

C224 191 222 198 221 202

L218 209

L214 208

C211 208 201 208 190 208

C170 208 170 208 167 211

C164 213 164 214 164 221

C164 224 165 231 165 235

C167 244 169 261 169 261

C168 262 139 267 131 268

C121 269 116 270 112 273

C108 275 108 275 108 280

C108 290 112 301 124 322

L127 327

L124 329

C119 332 99 350 95 354

C90 359 82 371 81 375

C80 377 78 386 77 395

C74 414 75 420 82 433

C93 456 123 496 140 511

C164 531 187 548 202 554

C208 556 217 560 222 562

C226 564 231 566 233 566

L235 566

L236 546

Z

M464 383

C457 379 434 369 418 362

C402 356 388 351 374 347

C366 345 359 343 359 343

L358 342

L361 342

C363 341 370 341 377 341

C389 340 390 340 404 343

C431 350 438 353 457 365

C462 368 467 371 468 371

C468 371 471 373 473 376

C475 378 477 380 477 380

L478 380

L478 378

C478 376 480 373 484 369

C506 347 514 341 531 335

C535 333 542 331 545 329

C562 323 576 320 581 323

L583 324

L576 326

C572 327 564 330 558 333

C548 338 516 359 497 373

C492 376 487 379 486 380

C480 381 476 383 476 385

L475 387

L473 387

C471 387 467 385 464 383

Z

M299 335

C294 330 294 325 297 318

C299 313 308 304 310 304

C313 304 317 309 318 314

C320 322 316 334 310 336

C306 338 300 337 299 335

Z

M451 326

C448 324 448 323 448 319

C449 311 459 294 463 294

C464 294 466 295 467 297

C470 300 470 301 470 308

C470 316 468 322 464 326

C460 330 454 330 451 326

Z

"/>

<path fill="#cca59a" stroke="none" d="
M341 694

C341 693 338 693 335 693

C332 693 329 693 328 692

C327 692 324 692 323 692

L319 693

L319 692

C318 691 292 687 288 687

C287 687 285 686 285 686

C284 685 261 679 260 680

L259 680

L259 679

L259 678

L254 677

C251 676 243 673 237 671

C231 668 225 666 225 667

L224 667

L224 666

C223 665 213 660 212 661

L211 661

L211 660

L211 659

L208 658

C206 657 204 657 204 657

L203 657

L203 656

C203 655 188 647 186 647

L185 647

L185 646

C185 646 181 643 176 639

C165 633 149 621 141 614

C138 611 135 609 135 609

C134 609 132 606 128 603

C125 600 122 597 122 597

C121 597 119 595 117 593

L113 589

L113 589

L114 589

L107 581

C96 570 84 554 74 539

C70 532 65 526 65 525

L63 523

L64 523

L64 523

L63 520

C62 518 60 517 60 517

L59 517

L59 516

L60 516

L52 500

C48 492 44 484 44 484

C44 484 43 483 43 483

C43 482 42 478 41 474

L38 466

L37 466

L36 466

L36 465

C37 465 35 460 34 454

C32 448 30 441 29 438

L28 433

L27 433

L26 433

L26 432

C27 432 26 424 24 416

C22 408 21 399 20 395

C20 391 19 388 19 388

C19 387 19 385 19 383

C19 381 19 379 18 378

C18 377 18 373 18 369

C18 365 18 362 17 362

C16 361 16 338 17 336

C18 335 18 332 18 328

C18 324 18 320 18 319

C19 319 19 316 19 314

C19 312 19 310 19 309

C20 309 20 307 20 305

C20 304 20 302 20 301

C21 298 25 275 24 274

L24 273

L25 273

L26 273

L27 265

C30 253 40 223 46 211

C49 205 51 199 50 199

L50 198

L51 198

C52 198 56 190 55 189

L55 188

L56 188

C57 188 58 186 60 183

L62 178

L61 178

L61 178

L62 177

C62 177 66 171 70 165

C78 152 91 134 100 124

C104 119 107 116 107 116

C107 115 129 93 130 93

C130 93 133 90 138 86

C148 77 166 64 179 56

C185 52 191 48 191 48

L192 47

L192 47

L192 48

L198 45

C201 43 204 42 204 41

L204 40

L205 40

C205 40 207 40 208 40

L210 39

L210 38

L210 37

L211 37

C212 38 229 30 230 29

C230 29 231 28 232 28

C234 28 263 18 264 17

C264 17 266 16 267 16

L270 16

L271 15

L271 14

L272 14

C273 15 291 11 292 10

L292 9

L295 10

L297 10

L297 9

L297 9

L300 8

C304 8 332 5 334 4

C335 4 339 4 344 4

C348 4 352 4 352 3

C353 2 371 2 373 3

C373 4 377 4 382 4

C386 4 390 4 391 4

C393 5 421 8 425 8

L428 9

L428 9

L428 10

L430 10

L433 9

L433 10

C434 11 457 17 459 17

C460 17 461 17 461 17

C462 18 491 28 493 28

L495 28

L495 29

C495 30 500 32 501 32

L502 31

L502 32

C503 33 513 38 514 37

L515 37

L515 38

L515 39

L516 39

L517 38

L517 39

L517 40

L518 40

L519 39

L519 40

L519 41

L520 41

L521 40

L521 41

C521 41 525 44 530 47

C535 49 541 53 544 55

C547 57 550 58 550 58

C551 58 552 60 554 61

L556 63

L557 62

L558 62

L558 63

C558 63 563 67 568 71

C574 75 582 82 587 86

C592 90 596 93 596 93

C596 93 601 99 607 105

L619 116

L618 116

L618 116

L625 124

C629 129 636 137 640 143

C644 148 648 153 648 153

L649 153

L649 154

L648 154

L654 163

C657 168 662 176 664 181

C667 186 670 190 670 190

L671 190

L671 191

L670 192

L671 192

L672 192

L672 193

L671 194

L672 194

L673 194

L673 195

L672 196

L673 196

L674 196

L674 197

C673 198 681 215 682 216

L683 216

L682 217

C682 218 682 219 683 220

C684 221 685 222 685 223

C685 224 693 249 694 250

C694 250 695 252 695 253

L695 256

L696 257

L697 257

L697 258

C696 258 697 265 699 272

C702 285 706 310 706 316

C706 318 706 320 707 320

C707 321 707 325 707 329

C707 333 707 337 708 337

C709 338 709 359 708 361

C707 361 707 365 707 369

C707 373 707 377 707 378

C706 379 706 381 706 383

C706 385 706 387 706 388

C705 388 705 392 705 395

C704 399 704 402 704 403

C703 404 702 409 702 414

C699 427 694 445 690 459

C688 465 686 471 686 472

C686 473 685 474 685 474

C684 475 677 491 678 492

L678 493

L677 493

C677 493 674 498 672 503

C669 508 665 516 663 519

C660 523 659 527 659 528

L659 529

L658 529

C657 529 654 534 654 536

L654 537

L653 537

C653 537 651 539 650 541

L647 545

L647 545

L648 545

L645 548

C644 549 639 555 635 562

C630 568 622 577 618 581

C614 586 610 590 610 591

C610 591 609 593 607 595

L603 598

L603 598

L602 597

L596 603

C593 607 590 609 590 609

C590 609 587 611 584 614

L578 620

L578 619

L578 619

L568 626

C563 630 554 636 549 639

C544 643 540 646 540 646

L540 647

L539 647

C537 647 522 655 522 656

L522 657

L521 657

L520 656

L520 657

L520 658

L519 658

L518 657

L518 658

L518 659

L517 659

L516 658

L516 659

L516 660

L515 660

L514 659

L514 660

L514 661

L513 661

C513 660 510 661 507 662

C505 664 497 667 491 670

C484 672 478 675 478 675

C478 675 477 676 477 676

C476 676 473 676 471 677

L466 678

L466 679

L466 680

L465 680

C464 679 441 685 440 686

L440 687

L439 686

C439 686 432 687 425 688

C417 690 408 691 404 692

L397 692

L397 693

L397 694

L392 693

C389 693 385 693 384 693

C382 694 342 695 341 694

Z

M237 528

C237 505 239 487 239 481

C240 476 241 471 241 471

L242 471

L246 474

C252 476 260 479 265 479

C268 479 270 481 275 486

C286 497 296 500 320 500

C331 500 341 499 347 496

L351 494

L354 498

C357 504 359 505 375 517

C382 522 392 529 397 531

C414 538 455 555 463 558

C467 559 472 560 473 561

C476 563 478 562 483 558

C486 555 491 552 494 550

C499 546 505 542 527 527

C539 519 553 505 558 497

C562 491 565 483 565 479

C565 477 566 474 566 471

C567 469 569 463 570 460

C570 456 571 452 572 451

L572 450

L573 450

C573 451 574 473 574 500

L575 549

L576 550

L577 550

L583 542

C586 537 591 529 594 523

C598 518 603 510 606 506

C611 499 621 481 634 458

C643 441 653 412 659 390

C661 380 661 379 661 359

C660 336 658 321 653 313

C652 310 648 305 642 300

C634 293 633 291 633 288

C633 281 631 279 619 279

L614 279

L613 276

C613 274 614 270 614 266

C616 258 617 243 617 240

C615 236 602 232 588 232

C584 232 581 232 580 231

C580 230 579 223 578 215

C577 201 576 197 572 190

C568 182 567 181 555 182

C549 182 539 182 535 183

C529 184 524 184 523 183

C520 182 519 182 518 176

C516 164 507 143 502 138

C498 135 497 135 493 135

C488 136 481 140 467 150

C464 152 458 156 454 158

C447 162 447 162 444 161

C443 160 441 158 440 156

C439 155 437 151 435 148

C433 145 430 141 429 138

C424 131 416 123 411 121

C409 119 405 117 403 116

C400 115 400 115 396 116

C394 117 392 118 390 119

C388 120 371 141 365 150

L363 153

L360 149

C345 132 330 119 322 119

C317 119 310 127 303 140

C299 150 295 159 293 167

L292 173

L288 173

C283 172 280 171 258 162

C241 155 238 155 234 159

C230 163 225 176 224 187

C224 190 222 197 220 201

L218 209

L215 209

C213 208 203 208 192 207

C171 207 168 207 165 212

C163 215 162 222 165 233

C167 245 169 260 168 261

C167 262 140 266 127 268

C121 269 116 270 113 272

C108 274 108 274 108 280

C108 291 112 301 123 321

L126 327

L122 330

C115 335 98 350 94 355

C88 361 81 372 79 377

C79 380 77 388 76 396

C74 414 75 420 81 434

C92 455 122 495 140 511

C148 518 170 535 181 543

C187 547 197 552 210 558

C216 560 223 563 227 564

C230 566 233 567 234 567

L236 566

L237 528

Z

M464 383

C443 371 397 353 372 347

L359 344

L359 343

L359 342

L361 342

C362 341 369 341 377 341

C389 340 390 340 404 343

C422 348 433 352 440 355

C452 361 468 372 473 376

C475 378 477 380 477 380

L478 380

L478 378

C478 376 480 373 484 369

C506 347 514 341 531 335

C535 333 542 331 545 329

C553 326 567 322 571 321

C574 321 577 321 578 322

L581 323

L581 324

L581 325

L574 327

C570 328 562 331 557 334

C548 338 515 360 497 373

C492 376 487 379 486 380

C480 381 476 383 476 385

L475 387

L473 387

C471 387 467 385 464 383

Z

M299 335

C295 330 294 325 297 318

C299 313 308 304 310 304

C313 304 317 309 318 314

C320 322 316 334 310 336

C306 338 300 337 299 335

Z

M451 326

C448 324 448 323 448 319

C449 311 459 294 463 294

C464 294 466 295 467 297

C470 300 470 301 470 308

C470 316 468 322 464 326

C460 330 454 330 451 326

Z

"/>

<path fill="#ffa482" stroke="none" d="
M341 694

C341 693 338 693 335 693

C332 693 329 693 328 692

C327 692 324 692 323 692

L319 693

L319 692

C318 691 292 687 288 687

C287 687 285 686 285 686

C284 685 261 679 260 680

L259 680

L259 679

L259 678

L254 677

C251 676 243 673 237 671

C231 668 225 666 225 667

L224 667

L224 666

C223 665 213 660 212 661

L211 661

L211 660

L211 659

L208 658

C206 657 204 657 204 657

L203 657

L203 656

C203 655 188 647 186 647

L185 647

L185 646

C185 646 181 643 176 639

C165 633 149 621 141 614

C138 611 135 609 135 609

C134 609 132 606 128 603

C125 600 122 597 122 597

C121 597 119 595 117 593

L113 589

L113 589

L114 589

L107 581

C96 570 84 554 74 539

C70 532 65 526 65 525

L63 523

L64 523

L64 523

L63 520

C62 518 60 517 60 517

L59 517

L59 516

L60 516

L52 500

C48 492 44 484 44 484

C44 484 43 483 43 483

C43 482 42 478 41 474

L38 466

L37 466

L36 466

L36 465

C37 465 35 460 34 454

C32 448 30 441 29 438

L28 433

L27 433

L26 433

L26 432

C27 432 26 424 24 416

C22 408 21 399 20 395

C20 391 19 388 19 388

C19 387 19 385 19 383

C19 381 19 379 18 378

C18 377 18 373 18 369

C18 365 18 362 17 362

C16 361 16 338 17 336

C18 335 18 332 18 328

C18 324 18 320 18 319

C19 319 19 316 19 314

C19 312 19 310 19 309

C20 309 20 307 20 305

C20 304 20 302 20 301

C21 298 25 275 24 274

L24 273

L25 273

L26 273

L27 265

C30 253 40 223 46 211

C49 205 51 199 50 199

L50 198

L51 198

C52 198 56 190 55 189

L55 188

L56 188

C57 188 58 186 60 183

L62 178

L61 178

L61 178

L62 177

C62 177 66 171 70 165

C78 152 91 134 100 124

C104 119 107 116 107 116

C107 115 129 93 130 93

C130 93 133 90 138 86

C148 77 166 64 179 56

C185 52 191 48 191 48

L192 47

L192 47

L192 48

L198 45

C201 43 204 42 204 41

L204 40

L205 40

C205 40 207 40 208 40

L210 39

L210 38

L210 37

L211 37

C212 38 229 30 230 29

C230 29 231 28 232 28

C234 28 263 18 264 17

C264 17 266 16 267 16

L270 16

L271 15

L271 14

L272 14

C273 15 291 11 292 10

L292 9

L295 10

L297 10

L297 9

L297 9

L300 8

C304 8 332 5 334 4

C335 4 339 4 344 4

C348 4 352 4 352 3

C353 2 371 2 373 3

C373 4 377 4 382 4

C386 4 390 4 391 4

C393 5 421 8 425 8

L428 9

L428 9

L428 10

L430 10

L433 9

L433 10

C434 11 457 17 459 17

C460 17 461 17 461 17

C462 18 491 28 493 28

L495 28

L495 29

C495 30 500 32 501 32

L502 31

L502 32

C503 33 513 38 514 37

L515 37

L515 38

L515 39

L516 39

L517 38

L517 39

L517 40

L518 40

L519 39

L519 40

L519 41

L520 41

L521 40

L521 41

C521 41 525 44 530 47

C535 49 541 53 544 55

C547 57 550 58 550 58

C551 58 552 60 554 61

L556 63

L557 62

L558 62

L558 63

C558 63 563 67 568 71

C574 75 582 82 587 86

C592 90 596 93 596 93

C596 93 601 99 607 105

L619 116

L618 116

L618 116

L625 124

C629 129 636 137 640 143

C644 148 648 153 648 153

L649 153

L649 154

L648 154

L654 163

C657 168 662 176 664 181

C667 186 670 190 670 190

L671 190

L671 191

L670 192

L671 192

L672 192

L672 193

L671 194

L672 194

L673 194

L673 195

L672 196

L673 196

L674 196

L674 197

C673 198 681 215 682 216

L683 216

L682 217

C682 218 682 219 683 220

C684 221 685 222 685 223

C685 224 693 249 694 250

C694 250 695 252 695 253

L695 256

L696 257

L697 257

L697 258

C696 258 697 265 699 272

C702 285 706 310 706 316

C706 318 706 320 707 320

C707 321 707 325 707 329

C707 333 707 337 708 337

C709 338 709 359 708 361

C707 361 707 365 707 369

C707 373 707 377 707 378

C706 379 706 381 706 383

C706 385 706 387 706 388

C705 388 705 392 705 395

C704 399 704 402 704 403

C703 404 702 409 702 414

C699 427 694 445 690 459

C688 465 686 471 686 472

C686 473 685 474 685 474

C684 475 677 491 678 492

L678 493

L677 493

C677 493 674 498 672 503

C669 508 665 516 663 519

C660 523 659 527 659 528

L659 529

L658 529

C657 529 654 534 654 536

L654 537

L653 537

C653 537 651 539 650 541

L647 545

L647 545

L648 545

L645 548

C644 549 639 555 635 562

C630 568 622 577 618 581

C614 586 610 590 610 591

C610 591 609 593 607 595

L603 598

L603 598

L602 597

L596 603

C593 607 590 609 590 609

C590 609 587 611 584 614

L578 620

L578 619

L578 619

L568 626

C563 630 554 636 549 639

C544 643 540 646 540 646

L540 647

L539 647

C537 647 522 655 522 656

L522 657

L521 657

L520 656

L520 657

L520 658

L519 658

L518 657

L518 658

L518 659

L517 659

L516 658

L516 659

L516 660

L515 660

L514 659

L514 660

L514 661

L513 661

C513 660 510 661 507 662

C505 664 497 667 491 670

C484 672 478 675 478 675

C478 675 477 676 477 676

C476 676 473 676 471 677

L466 678

L466 679

L466 680

L465 680

C464 679 441 685 440 686

L440 687

L439 686

C439 686 432 687 425 688

C417 690 408 691 404 692

L397 692

L397 693

L397 694

L392 693

C389 693 385 693 384 693

C382 694 342 695 341 694

Z

M235 566

C236 565 236 548 237 528

C238 496 240 474 242 472

L242 472

L248 475

C253 477 257 478 262 479

C269 479 269 479 276 486

C285 496 291 498 310 500

C321 501 324 501 334 500

C340 499 346 497 348 496

L351 494

L354 498

C357 504 359 505 375 517

C382 522 392 529 397 531

C414 538 455 555 463 558

C467 559 472 560 473 561

C476 563 478 562 483 558

C486 555 491 552 494 550

C499 546 505 542 527 527

C539 519 553 505 558 497

C562 491 565 483 565 479

C565 477 566 474 566 472

C567 469 569 464 570 459

L571 451

L572 451

L573 451

L573 470

C574 480 574 502 574 519

C574 536 574 549 574 550

C576 551 578 548 584 540

C588 535 593 526 596 522

C599 517 604 509 607 505

C609 501 613 495 615 492

C617 489 621 480 625 473

C634 458 639 448 643 438

C649 424 656 402 659 389

C662 377 662 377 661 357

C660 336 657 320 654 314

C653 311 648 305 643 301

C635 293 634 291 633 287

C632 281 630 279 623 279

C619 279 615 279 615 278

L613 278

L613 275

C613 274 614 270 615 267

C615 263 616 256 617 250

C617 241 617 240 615 238

C613 235 605 233 592 232

C585 231 580 231 580 230

C579 229 578 222 577 208

C577 201 576 198 573 192

C568 181 568 181 551 182

C543 182 534 183 532 183

C530 183 526 184 524 183

L520 182

L518 175

C517 167 510 149 506 143

C499 133 493 132 483 139

C455 157 449 161 446 161

C444 161 442 159 435 148

C426 134 419 125 415 122

C413 121 411 120 410 120

C410 120 408 119 406 118

C398 112 391 115 380 130

C368 145 363 152 362 152

C362 152 359 149 357 146

C351 137 336 124 329 121

C325 118 319 119 316 121

C312 124 307 132 303 140

C300 147 292 168 292 170

C292 171 292 172 291 172

C289 174 275 169 256 161

C242 155 238 155 233 159

C231 162 229 165 227 172

C225 177 224 184 224 187

C223 190 222 196 220 201

L217 209

L215 208

C214 208 208 208 202 207

C180 205 170 206 166 211

C163 214 163 215 163 220

C163 223 164 230 165 234

C165 239 167 247 167 252

L169 261

L168 262

C165 262 132 267 126 268

C120 268 112 271 109 274

C104 278 111 302 122 319

C125 325 126 328 123 329

C120 331 98 350 93 355

C86 363 80 374 78 381

C75 397 74 410 75 416

C77 431 92 456 119 488

C131 503 142 514 160 527

C181 544 190 550 202 555

C208 557 218 561 223 563

C227 565 232 567 233 567

L235 567

L235 566

Z

M464 383

C443 371 397 353 372 347

L359 344

L359 343

L359 342

L361 342

C362 341 369 341 377 341

C389 340 390 340 404 343

C428 349 439 354 450 361

C455 364 458 365 465 370

C469 372 472 375 474 377

C475 378 477 380 477 380

L478 380

L478 378

C478 376 480 373 484 369

C506 347 514 341 531 335

C535 333 542 331 545 329

C553 326 567 322 571 321

C574 321 577 321 578 322

L581 323

L581 324

L581 325

L574 327

C570 328 562 331 557 334

C548 338 515 360 497 373

C492 376 487 379 486 380

C480 381 476 383 476 385

L475 387

L473 387

C471 387 467 385 464 383

Z

M299 335

C298 334 297 331 296 329

C295 325 295 324 296 319

C299 314 307 304 310 304

C313 304 317 309 318 314

C320 322 316 334 310 336

C306 338 300 337 299 335

Z

M451 326

C448 324 448 323 448 319

C449 311 459 294 463 294

C463 294 465 295 467 297

C470 300 470 300 470 308

C470 316 468 322 464 326

C460 330 454 330 451 326

Z

"/>

<path fill="#a6b6cd" stroke="none" d="
M341 694

C341 693 338 693 335 693

C332 693 329 693 328 692

C327 692 324 692 323 692

L319 693

L319 692

C318 691 292 687 288 687

C287 687 285 686 285 686

C284 685 261 679 260 680

L259 680

L259 679

L259 678

L254 677

C251 676 243 673 237 671

C231 668 225 666 225 667

L224 667

L224 666

C223 665 213 660 212 661

L211 661

L211 660

L211 659

L208 658

C206 657 204 657 204 657

L203 657

L203 656

C203 655 188 647 186 647

L185 647

L185 646

C185 646 181 643 176 639

C165 633 149 621 141 614

C138 611 135 609 135 609

C134 609 132 606 128 603

C125 600 122 597 122 597

C121 597 119 595 117 593

L113 589

L113 589

L114 589

L107 581

C96 570 84 554 74 539

C70 532 65 526 65 525

L63 523

L64 523

L64 523

L63 520

C62 518 60 517 60 517

L59 517

L59 516

L60 516

L52 500

C48 492 44 484 44 484

C44 484 43 483 43 483

C43 482 42 478 41 474

L38 466

L37 466

L36 466

L36 465

C37 465 35 460 34 454

C32 448 30 441 29 438

L28 433

L27 433

L26 433

L26 432

C27 432 26 424 24 416

C22 408 21 399 20 395

C20 391 19 388 19 388

C19 387 19 385 19 383

C19 381 19 379 18 378

C18 377 18 373 18 369

C18 365 18 362 17 362

C16 361 16 338 17 336

C18 335 18 332 18 328

C18 324 18 320 18 319

C19 319 19 316 19 314

C19 312 19 310 19 309

C20 309 20 307 20 305

C20 304 20 302 20 301

C21 298 25 275 24 274

L24 273

L25 273

L26 273

L27 265

C30 253 40 223 46 211

C49 205 51 199 50 199

L50 198

L51 198

C52 198 56 190 55 189

L55 188

L56 188

C57 188 58 186 60 183

L62 178

L61 178

L61 178

L62 177

C62 177 66 171 70 165

C78 152 91 134 100 124

C104 119 107 116 107 116

C107 115 129 93 130 93

C130 93 133 90 138 86

C148 77 166 64 179 56

C185 52 191 48 191 48

L192 47

L192 47

L192 48

L198 45

C201 43 204 42 204 41

L204 40

L205 40

C205 40 207 40 208 40

L210 39

L210 38

L210 37

L211 37

C212 38 229 30 230 29

C230 29 231 28 232 28

C234 28 263 18 264 17

C264 17 266 16 267 16

L270 16

L271 15

L271 14

L272 14

C273 15 291 11 292 10

L292 9

L295 10

L297 10

L297 9

L297 9

L300 8

C304 8 332 5 334 4

C335 4 339 4 344 4

C348 4 352 4 352 3

C353 2 371 2 373 3

C373 4 377 4 382 4

C386 4 390 4 391 4

C393 5 421 8 425 8

L428 9

L428 9

L428 10

L430 10

L433 9

L433 10

C434 11 457 17 459 17

C460 17 461 17 461 17

C462 18 491 28 493 28

L495 28

L495 29

C495 30 500 32 501 32

L502 31

L502 32

C503 33 513 38 514 37

L515 37

L515 38

L515 39

L516 39

L517 38

L517 39

L517 40

L518 40

L519 39

L519 40

L519 41

L520 41

L521 40

L521 41

C521 41 525 44 530 47

C535 49 541 53 544 55

C547 57 550 58 550 58

C551 58 552 60 554 61

L556 63

L557 62

L558 62

L558 63

C558 63 563 67 568 71

C574 75 582 82 587 86

C592 90 596 93 596 93

C596 93 601 99 607 105

L619 116

L618 116

L618 116

L625 124

C629 129 636 137 640 143

C644 148 648 153 648 153

L649 153

L649 154

L648 154

L654 163

C657 168 662 176 664 181

C667 186 670 190 670 190

L671 190

L671 191

L670 192

L671 192

L672 192

L672 193

L671 194

L672 194

L673 194

L673 195

L672 196

L673 196

L674 196

L674 197

C673 198 681 215 682 216

L683 216

L682 217

C682 218 682 219 683 220

C684 221 685 222 685 223

C685 224 693 249 694 250

C694 250 695 252 695 253

L695 256

L696 257

L697 257

L697 258

C696 258 697 265 699 272

C702 285 706 310 706 316

C706 318 706 320 707 320

C707 321 707 325 707 329

C707 333 707 337 708 337

C709 338 709 359 708 361

C707 361 707 365 707 369

C707 373 707 377 707 378

C706 379 706 381 706 383

C706 385 706 387 706 388

C705 388 705 392 705 395

C704 399 704 402 704 403

C703 404 702 409 702 414

C699 427 694 445 690 459

C688 465 686 471 686 472

C686 473 685 474 685 474

C684 475 677 491 678 492

L678 493

L677 493

C677 493 674 498 672 503

C669 508 665 516 663 519

C660 523 659 527 659 528

L659 529

L658 529

C657 529 654 534 654 536

L654 537

L653 537

C653 537 651 539 650 541

L647 545

L647 545

L648 545

L645 548

C644 549 639 555 635 562

C630 568 622 577 618 581

C614 586 610 590 610 591

C610 591 609 593 607 595

L603 598

L603 598

L602 597

L596 603

C593 607 590 609 590 609

C590 609 587 611 584 614

L578 620

L578 619

L578 619

L568 626

C563 630 554 636 549 639

C544 643 540 646 540 646

L540 647

L539 647

C537 647 522 655 522 656

L522 657

L521 657

L520 656

L520 657

L520 658

L519 658

L518 657

L518 658

L518 659

L517 659

L516 658

L516 659

L516 660

L515 660

L514 659

L514 660

L514 661

L513 661

C513 660 510 661 507 662

C505 664 497 667 491 670

C484 672 478 675 478 675

C478 675 477 676 477 676

C476 676 473 676 471 677

L466 678

L466 679

L466 680

L465 680

C464 679 441 685 440 686

L440 687

L439 686

C439 686 432 687 425 688

C417 690 408 691 404 692

L397 692

L397 693

L397 694

L392 693

C389 693 385 693 384 693

C382 694 342 695 341 694

Z

M235 566

C236 565 236 548 237 528

C238 496 240 474 242 472

L242 472

L248 475

C253 477 257 478 262 479

C269 479 269 479 276 486

C285 496 291 498 310 500

C321 501 324 501 334 500

C340 499 346 497 348 496

L351 494

L354 498

C357 504 359 505 375 517

C382 522 392 529 397 531

C414 538 455 555 463 558

C467 559 472 560 473 561

C476 563 478 562 483 558

C486 555 491 552 494 550

C499 546 505 542 527 527

C539 519 553 505 558 497

C562 491 565 483 565 479

C565 477 566 474 566 472

C567 469 569 464 570 459

L571 451

L572 451

L573 451

L573 470

C574 480 574 502 574 519

C574 536 574 549 574 550

C576 551 578 548 584 540

C588 535 593 526 596 522

C599 517 604 509 607 505

C609 501 613 495 615 492

C617 489 621 480 625 473

C634 458 639 448 643 438

C649 424 656 402 659 389

C662 377 662 377 661 357

C660 336 657 320 654 314

C653 311 648 305 643 301

C635 293 634 291 633 287

C632 281 630 279 623 279

C619 279 615 279 615 278

L613 278

L613 275

C613 274 614 270 615 267

C615 263 616 256 617 250

C617 241 617 240 615 238

C613 235 605 233 592 232

C585 231 580 231 580 230

C579 229 578 222 577 208

C577 201 576 198 573 192

C568 181 568 181 551 182

C543 182 534 183 532 183

C530 183 526 184 524 183

L520 182

L518 175

C517 167 510 149 506 143

C499 133 493 132 483 139

C455 157 449 161 446 161

C444 161 442 159 435 148

C426 134 419 125 415 122

C413 121 411 120 410 120

C410 120 408 119 406 118

C398 112 391 115 380 130

C368 145 363 152 362 152

C362 152 359 149 357 146

C351 137 336 124 329 121

C325 118 319 119 316 121

C312 124 307 132 303 140

C300 147 292 168 292 170

C292 171 292 172 291 172

C289 174 275 169 256 161

C242 155 238 155 233 159

C231 162 229 165 227 172

C225 177 224 184 224 187

C223 190 222 196 220 201

L217 209

L215 208

C214 208 208 208 202 207

C180 205 170 206 166 211

C163 214 163 215 163 220

C163 223 164 230 165 234

C165 239 167 247 167 252

L169 261

L168 262

C165 262 132 267 126 268

C120 268 112 271 109 274

C104 278 111 302 122 319

C125 325 126 328 123 329

C120 331 98 350 93 355

C86 363 80 374 78 381

C75 397 74 410 75 416

C77 431 92 456 119 488

C131 503 142 514 160 527

C181 544 190 550 202 555

C208 557 218 561 223 563

C227 565 232 567 233 567

L235 567

L235 566

Z

M464 383

C443 371 397 353 372 347

L359 344

L360 343

C361 342 367 341 376 341

C391 341 393 341 405 344

C424 349 438 353 445 358

C452 362 456 364 465 370

C468 372 472 375 474 377

C475 378 477 380 477 380

L478 380

L478 377

C479 375 484 370 495 359

C512 343 518 340 536 333

C541 331 548 329 553 327

C566 322 573 321 578 322

L582 323

L582 324

C581 324 578 325 575 326

C571 327 564 330 558 333

C548 338 516 359 497 373

C492 376 487 379 486 380

C480 381 476 383 476 385

L475 387

L473 387

C471 387 467 385 464 383

Z

M299 335

C298 334 297 331 296 329

C295 324 295 324 298 318

C301 311 308 304 310 304

C313 304 317 310 318 314

C320 322 316 334 310 336

C306 338 300 337 299 335

Z

M451 327

C448 323 448 317 453 307

C457 299 461 294 463 294

C464 294 465 295 467 297

C470 300 470 300 470 308

C470 316 468 322 464 326

C460 330 454 330 451 327

Z

"/>

<path fill="#c0b3b8" stroke="none" d="
M339 693

C311 691 294 688 273 682

C177 656 97 590 53 501

C29 451 18 403 18 349

C18 324 19 313 23 290

C48 143 166 28 314 7

C403 -6 495 17 568 71

C673 150 726 283 702 411

C684 505 630 586 550 638

C506 667 459 684 405 692

C393 693 348 694 339 693

Z

M235 567

C236 566 237 561 237 553

C237 546 237 531 237 520

C238 509 238 498 238 496

C238 492 239 485 241 477

C241 476 241 474 241 473

L241 472

L243 472

L244 472

L244 473

L244 474

L245 474

C245 474 247 474 249 475

C251 477 253 478 254 478

C255 478 257 478 259 479

C261 479 264 479 265 479

C267 479 269 480 272 483

C274 485 276 487 276 487

C276 488 279 491 280 491

L281 491

L282 493

L282 494

L283 494

C284 494 287 495 291 497

C294 498 300 499 302 500

C310 500 332 500 336 500

C337 499 339 499 341 499

C342 498 344 498 346 497

L350 496

L350 495

L350 494

L353 498

C354 500 357 504 359 506

C367 513 389 527 397 531

C414 539 456 556 463 558

C467 559 472 561 474 562

C477 563 477 563 481 560

C483 558 488 555 493 552

C497 549 504 543 509 540

C513 537 522 531 528 527

C546 515 561 497 564 486

C567 472 571 454 572 453

L573 451

L573 455

C573 457 573 479 573 504

L574 550

L575 550

C576 550 582 545 582 543

C582 543 589 533 590 532

C590 532 592 529 593 527

C594 524 596 522 596 522

L597 522

L597 520

C598 517 608 503 610 501

C611 500 613 496 615 492

C617 488 619 485 619 485

L620 485

L621 480

L623 476

L624 476

L625 476

L625 475

C625 474 626 473 626 472

C627 471 628 469 628 468

C629 467 630 465 630 465

C632 463 641 445 641 443

C641 443 642 441 643 440

L644 438

L643 438

L643 438

L644 436

L646 433

L645 433

L645 433

L646 431

C647 430 648 428 648 427

C648 426 649 424 649 423

L650 422

L650 422

L649 422

L650 421

L651 419

L650 419

L650 418

L651 417

L652 415

L652 415

L651 415

L652 414

L653 412

L653 412

L652 412

L653 411

L654 409

L654 409

L653 409

L654 407

C656 404 656 404 657 398

C658 395 658 392 659 391

C659 390 659 388 660 387

C660 385 660 383 661 382

C661 381 662 377 661 374

C660 331 660 335 658 325

C657 321 656 317 655 316

C654 314 654 312 654 312

L654 312

L653 311

C653 311 648 306 643 301

C636 293 634 291 634 288

C633 280 630 279 622 279

C619 279 616 279 615 278

L613 278

L613 274

C613 272 614 271 614 270

L615 270

L615 269

C614 269 615 267 615 264

C616 258 617 251 617 245

C617 240 617 239 614 237

C612 236 610 234 608 234

C607 234 605 234 605 233

C604 233 601 233 597 232

C593 232 588 232 585 231

L580 231

L580 230

C579 226 578 219 577 208

C577 201 576 198 573 192

C568 181 568 181 551 182

C544 182 536 182 534 183

C529 183 521 183 520 182

C520 182 519 179 518 175

C518 167 518 169 516 164

C515 161 513 156 511 153

C503 134 496 130 483 139

C456 157 449 161 447 161

C444 161 442 158 425 132

C421 126 418 123 416 123

L415 123

L415 122

L415 121

L414 121

L413 122

L413 121

C413 120 411 120 410 120

C409 119 407 118 405 117

C403 116 401 115 400 115

C395 115 388 119 385 124

C383 126 381 128 381 128

L380 128

L380 130

L380 131

L379 132

L377 132

L377 134

L377 135

L376 136

L374 136

L374 137

C374 138 373 140 372 141

C369 143 365 148 365 149

C365 149 364 150 364 151

L362 152

L361 152

C360 151 360 150 360 149

L360 148

L359 148

C359 148 356 145 354 142

C351 138 347 134 344 132

C342 130 338 127 336 125

C331 121 327 119 323 119

C317 119 314 121 311 127

C309 130 307 132 307 133

C306 133 299 147 298 149

C298 150 298 150 298 150

C298 150 298 152 297 153

C297 154 297 156 296 157

L295 158

L296 158

L296 159

L295 159

L294 159

L294 160

C294 160 294 163 293 166

L291 173

L289 172

C285 172 268 167 265 164

C264 164 263 163 263 163

C262 163 258 162 255 160

C251 158 247 157 247 156

C246 156 246 156 245 156

C245 156 243 156 241 156

C237 156 236 157 232 161

L228 165

L228 166

L229 166

L228 170

L226 173

L227 173

L227 173

L226 175

L225 176

L225 176

L226 176

L225 179

C224 180 224 183 224 186

C223 192 220 205 217 207

C216 209 216 209 211 208

C208 207 198 207 188 206

C171 206 171 206 168 209

C162 214 162 216 164 234

C165 236 165 239 166 240

C166 241 166 244 167 247

C167 249 167 253 168 256

L169 261

L168 261

C168 262 165 262 162 263

C154 263 153 264 148 265

C145 265 143 265 142 265

C140 266 138 266 136 266

C134 267 130 267 127 267

C121 268 120 268 115 270

L113 270

L113 271

L113 272

L111 272

C103 272 108 299 122 319

C123 321 124 323 123 323

L123 324

L124 324

L125 324

L125 326

C125 327 124 329 122 330

C120 331 117 333 116 335

C114 337 112 338 112 338

C111 338 108 340 95 354

C92 356 88 361 86 365

C84 368 81 372 81 372

C80 372 80 374 80 375

L79 377

L79 377

L79 377

L78 379

C77 385 77 387 76 394

C76 398 75 402 75 403

C74 408 75 419 78 426

L80 431

L79 431

L79 432

L80 432

L81 432

L81 433

L80 434

L81 434

L82 434

L82 435

L81 436

L82 436

L83 436

L83 437

L82 438

L83 438

L84 438

L84 439

L83 440

L84 440

C85 441 91 450 91 452

L91 453

L92 453

L93 453

L93 454

C93 455 94 456 95 458

C97 459 98 461 99 463

C100 464 101 466 102 466

C102 467 103 468 103 468

L103 470

L104 470

C105 471 112 480 112 481

C112 481 113 482 114 483

C115 483 116 484 116 485

C116 485 117 487 119 489

C120 490 126 496 131 502

C135 507 140 512 142 513

C144 514 151 521 155 524

C156 525 157 526 158 526

L159 526

L160 528

L160 529

L161 529

C162 529 166 531 169 535

C173 538 178 541 180 542

C181 543 183 545 183 545

L183 546

L184 546

C185 546 186 547 187 547

C188 548 197 553 198 553

C199 553 200 554 202 555

L205 556

L205 556

L206 556

L208 557

L211 559

L211 558

L211 558

L214 559

L216 561

L216 560

L216 560

L218 561

C219 562 221 562 221 562

L222 562

L222 563

L222 564

L223 564

L223 563

L228 566

C235 568 234 568 235 567

Z

M464 383

C443 371 397 353 372 347

L359 344

L360 343

C361 342 367 341 376 341

C391 341 393 341 405 344

C424 349 438 353 445 358

C452 362 456 364 465 370

C468 372 472 375 474 377

C475 378 477 380 477 380

L478 380

L478 377

C479 375 484 370 495 359

C512 343 518 340 536 333

C541 331 548 329 553 327

C566 322 573 321 578 322

L582 323

L582 324

C581 324 578 325 575 326

C571 327 564 330 558 333

C548 338 516 359 497 373

C492 376 487 379 486 380

C480 381 476 383 476 385

L475 387

L473 387

C471 387 467 385 464 383

Z

M299 335

C298 334 297 331 296 329

C295 324 295 324 298 318

C301 311 308 304 310 304

C313 304 317 310 318 314

C320 322 316 334 310 336

C306 338 300 337 299 335

Z

M451 327

C448 323 448 317 453 307

C457 299 461 294 463 294

C464 294 465 295 467 297

C470 300 470 300 470 308

C470 316 468 322 464 326

C460 330 454 330 451 327

Z

"/>

<path fill="#febea3" stroke="none" d="
M339 693

C311 691 294 688 273 682

C177 656 97 590 53 501

C29 451 18 403 18 349

C18 324 19 313 23 290

C48 143 166 28 314 7

C403 -6 495 17 568 71

C673 150 726 283 702 411

C684 505 630 586 550 638

C506 667 459 684 405 692

C393 693 348 694 339 693

Z

M236 567

C236 566 236 562 237 556

C237 551 237 533 238 517

C239 491 240 480 242 474

L242 472

L247 475

C251 477 256 478 261 479

C269 480 269 480 275 487

C286 497 297 501 321 501

C331 501 343 499 348 497

L351 495

L353 498

C354 500 357 503 359 505

C366 512 388 527 397 531

C414 539 456 556 463 558

C467 559 472 561 474 562

C477 563 477 563 481 560

C483 558 488 555 493 552

C497 549 504 543 509 540

C513 537 522 531 528 527

C546 515 561 497 564 486

C564 483 566 475 568 468

L571 454

L572 457

C573 458 573 479 573 504

C573 547 573 551 576 551

C577 551 590 533 596 523

C599 518 604 510 607 506

C609 503 613 497 615 493

C617 490 621 481 625 474

C639 450 644 440 652 414

C662 383 664 374 661 343

C658 317 656 312 642 299

C636 293 634 291 634 289

C634 285 632 280 630 280

C629 279 625 279 621 278

C617 278 614 277 613 277

C613 277 614 273 614 270

C617 260 618 243 617 240

C615 235 607 232 591 231

L581 231

L580 228

C579 226 579 219 578 212

C577 201 577 198 574 192

C569 182 568 181 557 181

C552 181 543 181 537 182

C520 183 521 184 519 175

C517 163 508 143 502 137

C495 131 490 133 466 150

C462 152 456 156 453 158

C447 161 447 161 444 160

C443 159 441 157 440 156

C438 151 428 136 423 129

C419 125 416 122 412 120

C409 119 405 116 403 115

C401 114 400 114 396 115

C394 116 391 117 389 118

C387 120 371 140 364 149

L362 152

L360 149

C353 139 337 124 330 120

C325 118 321 118 317 120

C310 124 297 148 292 168

L291 172

L288 172

C286 172 270 166 255 160

C242 154 238 154 233 158

C229 162 226 172 224 184

C223 187 222 194 220 199

L218 208

L214 207

C212 207 202 207 191 206

C175 206 172 206 169 207

C162 211 161 217 164 231

C165 241 168 260 168 261

C167 261 141 265 130 267

C120 268 117 269 113 271

C108 274 107 274 107 279

C107 282 107 287 108 290

C109 295 116 310 122 321

L125 326

L122 328

C116 333 96 351 92 356

C87 361 82 369 80 375

C77 379 74 408 75 415

C75 422 79 431 83 439

C93 456 115 486 130 502

C142 515 180 545 193 551

C201 555 233 568 234 568

C235 568 235 568 236 567

Z

M459 380

C432 366 396 353 374 347

C367 345 361 344 361 343

L360 343

L362 342

C363 341 370 341 378 341

C391 341 394 341 405 344

C432 351 440 354 461 368

C464 370 468 372 469 372

C469 372 471 374 473 376

C475 378 477 380 477 380

L478 380

L478 377

C479 375 484 370 495 359

C512 343 518 340 536 333

C541 331 548 329 553 327

C566 322 573 321 578 322

L582 323

L582 323

L582 324

L575 326

C571 327 563 330 558 333

C549 337 515 359 496 373

C487 379 487 379 481 380

C478 381 476 382 475 384

C474 386 473 387 473 387

C473 387 466 384 459 380

Z

M300 336

C299 336 295 328 295 325

C295 322 301 311 305 308

L309 304

L311 305

C317 309 319 317 317 326

C315 332 312 336 306 337

C303 337 301 337 300 336

Z

M452 327

C447 323 448 315 457 301

C461 293 464 292 468 298

C471 303 471 313 468 320

C464 328 457 331 452 327

Z

"/>

<path fill="#b4c8e4" stroke="none" d="
M339 693

C311 691 294 688 273 682

C177 656 97 590 53 501

C29 451 18 403 18 349

C18 324 19 313 23 290

C48 143 166 28 314 7

C403 -6 495 17 568 71

C673 150 726 283 702 411

C684 505 630 586 550 638

C506 667 459 684 405 692

C393 693 348 694 339 693

Z

M236 567

C236 566 236 562 237 556

C237 551 237 533 238 517

C239 491 240 480 242 474

L242 472

L247 475

C251 477 256 478 261 479

C269 480 269 480 275 487

C286 497 297 501 321 501

C331 501 343 499 348 497

L351 495

L353 498

C354 500 357 503 359 505

C366 512 388 527 397 531

C414 539 456 556 463 558

C467 559 472 561 474 562

C477 563 477 563 481 560

C483 558 488 555 493 552

C497 549 504 543 509 540

C513 537 522 531 528 527

C546 515 561 497 564 486

C564 483 566 475 568 468

L571 454

L572 457

C573 458 573 479 573 504

C573 547 573 551 576 551

C577 551 590 533 596 523

C599 518 604 510 607 506

C609 503 613 497 615 493

C617 490 621 481 625 474

C639 450 644 440 652 414

C662 383 664 374 661 343

C658 317 656 312 642 299

C636 293 634 291 634 289

C634 285 632 280 630 280

C629 279 625 279 621 278

C617 278 614 277 613 277

C613 277 614 273 614 270

C617 260 618 243 617 240

C615 235 607 232 591 231

L581 231

L580 228

C579 226 579 219 578 212

C577 201 577 198 574 192

C569 182 568 181 557 181

C552 181 543 181 537 182

C520 183 521 184 519 175

C517 163 508 143 502 137

C495 131 490 133 466 150

C462 152 456 156 453 158

C447 161 447 161 444 160

C443 159 441 157 440 156

C438 151 428 136 423 129

C419 125 416 122 412 120

C409 119 405 116 403 115

C401 114 400 114 396 115

C394 116 391 117 389 118

C387 120 371 140 364 149

L362 152

L360 149

C353 139 337 124 330 120

C325 118 321 118 317 120

C310 124 297 148 292 168

L291 172

L288 172

C286 172 270 166 255 160

C242 154 238 154 233 158

C229 162 226 172 224 184

C223 187 222 194 220 199

L218 208

L214 207

C212 207 202 207 191 206

C175 206 172 206 169 207

C162 211 161 217 164 231

C165 241 168 260 168 261

C167 261 141 265 130 267

C120 268 117 269 113 271

C108 274 107 274 107 279

C107 282 107 287 108 290

C109 295 116 310 122 321

L125 326

L122 328

C116 333 96 351 92 356

C87 361 82 369 80 375

C77 379 74 408 75 415

C75 422 79 431 83 439

C93 456 115 486 130 502

C142 515 180 545 193 551

C201 555 233 568 234 568

C235 568 235 568 236 567

Z

M459 380

C431 366 396 353 374 347

C367 345 361 344 361 343

L360 342

L364 342

C367 341 374 341 380 341

C390 341 394 342 405 345

C432 351 438 354 461 368

C465 370 470 374 472 376

L477 381

L475 384

C474 386 473 387 473 387

C473 387 466 384 459 380

Z

M478 378

C478 376 481 373 493 361

C509 345 518 340 535 334

C540 332 545 330 546 330

C547 329 564 324 570 322

C573 321 576 321 578 322

L581 323

L580 324

C580 324 577 326 574 326

C563 329 549 337 526 353

C514 361 500 370 496 373

C491 376 487 379 485 380

C484 380 482 380 481 381

L478 381

L478 378

Z

M299 335

C298 334 297 332 296 329

C295 325 295 325 297 319

C300 313 307 305 310 305

C312 305 316 309 317 312

C319 319 317 329 313 334

C309 337 302 338 299 335

Z

M452 327

C449 325 449 324 449 319

C450 311 459 295 463 295

C470 295 472 310 468 320

C463 328 457 331 452 327

Z

"/>

<path fill="#ffd7c6" stroke="none" d="
M458 379

C428 365 399 353 376 347

C369 345 362 344 361 343

L360 343

L363 342

C365 341 372 341 379 341

C390 341 393 342 406 345

C432 351 438 354 460 367

C464 369 470 374 472 376

L477 381

L475 384

L474 387

L473 387

C473 387 466 384 458 379

Z

M478 378

C478 376 481 373 493 361

C509 345 518 340 535 334

C540 332 545 330 546 330

C547 329 564 324 570 322

C574 321 576 321 578 322

L582 324

L574 326

C570 327 562 330 557 333

C547 338 512 361 496 373

C488 379 487 380 482 380

L478 381

L478 378

Z

M299 335

C298 334 297 331 296 329

C295 325 295 325 297 319

C300 313 307 305 310 305

C314 305 318 312 318 318

C318 323 315 331 313 334

C309 337 302 338 299 335

Z

M452 327

C449 325 449 324 449 319

C450 311 459 295 463 295

C470 295 472 310 468 320

C463 328 457 331 452 327

Z

"/>

<path fill="#eae4e3" stroke="none" d="
M458 379

C428 365 398 353 375 347

L361 343

L362 343

C363 342 369 342 377 342

C390 341 390 341 407 345

C417 348 427 351 430 352

C443 356 470 372 474 378

L477 382

L475 384

L474 387

L473 387

C473 387 466 384 458 379

Z

M479 378

C479 376 482 373 494 361

C507 348 510 346 519 341

C525 338 533 335 536 334

C540 333 544 331 545 331

C549 328 572 322 577 322

L580 323

L579 324

C579 324 576 326 573 326

C570 327 562 330 557 333

C547 338 512 361 497 372

C487 379 487 379 483 380

L479 381

L479 378

Z

M300 336

C298 334 296 330 296 326

C296 319 306 305 310 305

C312 305 316 309 317 312

C319 318 317 330 313 334

C310 337 302 338 300 336

Z

M451 326

C449 324 449 323 449 319

C450 315 453 307 459 299

C466 287 474 305 468 320

C463 329 457 332 451 326

Z

"/>

<path fill="#ffffff" stroke="none" d="
M457 379

C428 364 396 352 375 346

C369 345 364 343 364 343

L363 342

L378 342

C392 342 394 342 408 346

C433 352 437 354 454 364

C458 367 463 370 465 371

C467 372 470 375 472 377

L476 381

L475 383

L474 386

L473 386

C472 386 465 383 457 379

Z

M479 378

C479 376 483 372 494 361

C510 345 517 341 534 335

C540 333 548 330 553 328

C564 324 574 322 578 323

L581 324

L573 326

C558 331 539 342 498 371

C492 375 486 379 484 379

C483 379 481 379 481 380

L479 380

L479 378

Z

M300 335

C298 334 296 328 296 326

C296 322 300 315 305 310

C307 307 310 305 311 305

C311 305 313 307 315 309

C317 313 317 314 317 319

C317 326 314 334 310 335

C307 336 301 336 300 335

Z

M451 326

C448 322 450 313 458 301

C462 294 464 293 467 298

C469 300 469 302 469 308

C469 315 467 321 463 325

C460 329 454 329 451 326

Z

"/>

</svg>

